<?xml version="1.0" encoding="UTF-8" standalone="no"?>
<svg
   xmlns:dc="http://purl.org/dc/elements/1.1/"
   xmlns:cc="http://creativecommons.org/ns#"
   xmlns:rdf="http://www.w3.org/1999/02/22-rdf-syntax-ns#"
   xmlns:svg="http://www.w3.org/2000/svg"
   xmlns="http://www.w3.org/2000/svg"
   version="1.1"
   xml:space="preserve"
   height="600"
   width="600"
   id="svg2403"><metadata
     id="metadata2408"><rdf:RDF><cc:Work
         rdf:about=""><dc:format>image/svg+xml</dc:format><dc:type
           rdf:resource="http://purl.org/dc/dcmitype/StillImage" /><dc:title></dc:title></cc:Work></rdf:RDF></metadata><defs
     id="defs2406"><linearGradient
       id="linearGradient2426"
       spreadMethod="pad"
       gradientTransform="matrix(-2e-5,-431.99951,431.99951,-2e-5,432,-144)"
       gradientUnits="userSpaceOnUse"
       y2="0"
       x2="1"
       y1="0"
       x1="0"><stop
         id="stop2428"
         offset="0"
         style="stop-opacity:1;stop-color:#3753a5" /><stop
         id="stop2430"
         offset="1"
         style="stop-opacity:1;stop-color:#1e2942" /></linearGradient></defs><g
     transform="matrix(1.25,0,0,-1.25,0,600)"
     id="g2412"><g
       transform="matrix(1.0961102,0,0,1.0961102,-233.51961,-153.36202)"
       id="g4207"><g
         style="stroke:#ffffff;stroke-width:3.65393448;stroke-miterlimit:4;stroke-dasharray:none"
         id="g2414"
         transform="scale(1,-1)"><g
           style="stroke:#ffffff;stroke-width:3.65393448;stroke-miterlimit:4;stroke-dasharray:none"
           id="g2416"><g
             style="stroke:#ffffff;stroke-width:3.65393448;stroke-miterlimit:4;stroke-dasharray:none"
             id="g2422"><g
               style="stroke:#ffffff;stroke-width:3.65393448;stroke-miterlimit:4;stroke-dasharray:none"
               id="g2424"><path
                 d="m 216,-576 c 0,0 432,0 432,0 0,0 -216,432 -216,432 0,0 -216,-432 -216,-432 z"
                 style="fill:url(#linearGradient2426);stroke:#ffffff;stroke-width:3.65393448;stroke-miterlimit:4;stroke-dasharray:none"
                 id="path2432" /></g></g></g></g><g
         id="g4325"><g
           transform="translate(0,2.9194144)"
           id="g4309"><path
             id="path2442"
             style="fill:#ffffff;fill-opacity:1;fill-rule:nonzero;stroke:none"
             d="m 486,454.5 c 0,-32.30859 -26.19141,-58.5 -58.5,-58.5 -32.30859,0 -58.5,26.19141 -58.5,58.5 0,32.30859 26.19141,58.5 58.5,58.5 32.30859,0 58.5,-26.19141 58.5,-58.5 z" /><path
             id="path2444"
             style="fill:#ffffff;fill-opacity:1;fill-rule:nonzero;stroke:none"
             d="m 306,535.5 c 0,-2.48535 -2.01465,-4.5 -4.5,-4.5 -2.48535,0 -4.5,2.01465 -4.5,4.5 0,2.48535 2.01465,4.5 4.5,4.5 2.48535,0 4.5,-2.01465 4.5,-4.5 z" /><path
             id="path2446"
             style="fill:#ffffff;fill-opacity:1;fill-rule:nonzero;stroke:none"
             d="m 394.03125,540 c 0,-3.8833 -3.14795,-7.03125 -7.03125,-7.03125 -3.8833,0 -7.03125,3.14795 -7.03125,7.03125 0,3.8833 3.14795,7.03125 7.03125,7.03125 3.8833,0 7.03125,-3.14795 7.03125,-7.03125 z" /><path
             id="path2448"
             style="fill:#ffffff;fill-opacity:1;fill-rule:nonzero;stroke:none"
             d="m 324,454.5 c 0,-2.48535 -2.01465,-4.5 -4.5,-4.5 -2.48535,0 -4.5,2.01465 -4.5,4.5 0,2.48535 2.01465,4.5 4.5,4.5 2.48535,0 4.5,-2.01465 4.5,-4.5 z" /><path
             id="path2450"
             style="fill:#ffffff;fill-opacity:1;fill-rule:nonzero;stroke:none"
             d="m 469.96875,378 c 0,-1.0874 -0.88184,-1.96875 -1.96875,-1.96875 -1.08691,0 -1.96875,0.88135 -1.96875,1.96875 0,1.0874 0.88184,1.96875 1.96875,1.96875 1.08691,0 1.96875,-0.88135 1.96875,-1.96875 z" /><path
             id="path2452"
             style="fill:#ffffff;fill-opacity:1;fill-rule:nonzero;stroke:none"
             d="m 531,441 c 0,-4.9707 -4.0293,-9 -9,-9 -4.9707,0 -9,4.0293 -9,9 0,4.9707 4.0293,9 9,9 4.9707,0 9,-4.0293 9,-9 z" /><path
             id="path2454"
             style="fill:#ffffff;fill-opacity:1;fill-rule:nonzero;stroke:none"
             d="m 540,526.5 c 0,-2.48535 -2.01465,-4.5 -4.5,-4.5 -2.48535,0 -4.5,2.01465 -4.5,4.5 0,2.48535 2.01465,4.5 4.5,4.5 2.48535,0 4.5,-2.01465 4.5,-4.5 z" /><path
             id="path2456"
             style="fill:#ffffff;fill-opacity:1;fill-rule:nonzero;stroke:none"
             d="m 394.03125,324 c 0,-3.8833 -3.14795,-7.03125 -7.03125,-7.03125 -3.8833,0 -7.03125,3.14795 -7.03125,7.03125 0,3.8833 3.14795,7.03125 7.03125,7.03125 3.8833,0 7.03125,-3.14795 7.03125,-7.03125 z" /><path
             id="path2458"
             style="fill:#ffffff;fill-opacity:1;fill-rule:nonzero;stroke:none"
             d="m 509,431 c 7,10 21,15 32,20" /><path
             id="path2460"
             style="fill:#ffffff;fill-opacity:1;fill-rule:nonzero;stroke:none"
             d="m 509.87695,430.38623 c 8.0459,10.37451 20.52539,13.6792 31.45801,19.90772 0.88867,0.50634 0.27442,1.73388 -0.66992,1.4121 -11.6875,-3.98535 -25.18457,-9.67871 -32.54199,-20.09228 -0.80078,-1.13379 0.91211,-2.31299 1.7539,-1.22754 0,0 0,0 0,0 z" /><path
             id="path2462"
             style="fill:#ffffff;fill-opacity:1;fill-rule:nonzero;stroke:none"
             d="m 305,525 c -2.92578,6.46436 -3.9375,13.72461 -10,18" /><path
             id="path2464"
             style="fill:#ffffff;fill-opacity:1;fill-rule:nonzero;stroke:none"
             d="m 305.93896,525.4458 c -2.62402,6.15772 -3.97607,14.80859 -10.45068,18.25195 -0.78662,0.41846 -1.86035,-0.48632 -1.13769,-1.24853 2.39257,-2.5249 4.34863,-4.91309 5.8081,-8.11182 1.45801,-3.19482 2.47022,-6.57519 3.90235,-9.7832 0.54736,-1.22607 2.40185,-0.33838 1.87792,0.8916 0,0 0,0 0,0 z" /><path
             id="path2466"
             style="fill:#ffffff;fill-opacity:1;fill-rule:nonzero;stroke:none"
             d="m 290,529 c 4,5 12,9 19,11" /><path
             id="path2468"
             style="fill:#ffffff;fill-opacity:1;fill-rule:nonzero;stroke:none"
             d="m 290.53564,528.36816 c 5.67334,5.0459 11.82227,8.09961 18.89014,10.73536 1.05371,0.39306 0.48438,2.11914 -0.59814,1.87353 -6.91455,-1.56934 -15.55078,-5.271 -19.50586,-11.50195 -0.49219,-0.7749 0.48779,-1.75244 1.21386,-1.10694 0,0 0,0 0,0 z" /></g><g
           id="g4303"
           transform="translate(0,11.688857)"><path
             id="path2470"
             style="fill:#ffffff;fill-opacity:1;fill-rule:nonzero;stroke:none"
             d="m 371.71436,277.64844 c 2.01367,0.84961 4.00878,1.73437 6.03759,2.55273 4.56543,1.84082 9.21143,3.48242 13.85352,5.11817 9.96582,3.51269 20.42285,5.26855 30.89453,6.54882 24.32129,2.97364 54.11328,2.97168 73.52344,-14.26367 1.44238,-1.28027 3.6582,1.15332 2.27539,2.49707 -20.23438,19.6753 -54.48145,18.27051 -80.34278,14.72852 -11.66113,-1.59766 -22.58935,-4.375 -33.5874,-8.46387 -2.33447,-0.86719 -19.92085,-5.58102 -16.75972,-10.14059 2.46487,0.3781 1.32893,0.19919 4.10543,1.42282 z" /><path
             id="path2472"
             style="fill:#ffffff;fill-opacity:1;fill-rule:nonzero;stroke:none"
             d="m 381.45508,266.46387 c 6.17969,5.29297 14.75293,7.80371 22.48144,9.75879 10.01563,2.53515 20.43067,3.79394 30.7461,4.09863 8.80371,0.25976 18.07519,-0.14844 26.48828,-2.96484 3.70508,-1.24024 7.3789,-3.45899 9.83398,-6.51856 3.33203,-4.14941 -2.39258,-7.9834 -5.43847,-9.82226 -6.80469,-4.10743 -14.56739,-6.64942 -21.84766,-9.77149 -6.88379,-2.95117 -13.48926,-6.8916 -19.58008,-11.23242 -4.03222,-2.87305 -10.4082,-7.38281 -10.68066,-12.91992 -0.30078,-6.1084 9.40429,-6.90625 13.45117,-7.0625 0.99902,0 1.99805,-0.008 2.99609,-0.0254 1.27442,-0.0156 1.48828,1.91211 0.18946,1.99218 -4.04981,0.24805 -10.14746,0.27051 -13.34961,3.20508 -2.51856,2.30664 1.10156,6.15332 2.68554,7.81934 5.55372,5.83984 13.01758,10.15039 20.11231,13.81933 6.61523,3.4209 13.71191,5.74512 20.55371,8.65235 5.27832,2.24316 13.47559,5.62695 14.47949,12.11914 0.94922,6.1416 -7.85351,10.55371 -12.47656,12.25293 -7.79492,2.86426 -16.57617,3.18847 -24.7832,3.14844 -9.8252,-0.0488 -19.6836,-1.18067 -29.28516,-3.24317 -7.73437,-1.66211 -16.15625,-3.90918 -22.81055,-8.35937 -1.70068,-1.13672 -3.28076,-2.37305 -4.67578,-3.87403 -0.59961,-0.64453 0.20215,-1.67871 0.91016,-1.07226 0,0 0,0 0,0 z" /><path
             id="path2474"
             style="fill:#ffffff;fill-opacity:1;fill-rule:nonzero;stroke:none"
             d="m 397.27148,261.42871 c 4.6084,2.21875 9.28418,5.43262 14.62891,4.04004 4.5752,-1.19238 6.02149,-3.83008 3.40723,-7.76367 -3.58496,-5.39356 -9.44434,-8.80957 -13.17774,-14.0957 -0.6914,-0.97852 0.65039,-2.23633 1.55762,-1.41993 3.61328,3.25391 7.34375,6.33008 10.73926,9.83203 2.29394,2.36524 5.90137,6.18457 5.3457,9.8584 -0.61621,4.07325 -4.8291,5.47168 -8.33496,6.30274 -5.33203,1.26465 -11.05127,-2.35157 -14.84668,-5.7002 -0.53467,-0.47168 0.0244,-1.37012 0.68066,-1.05371 0,0 0,0 0,0 z" /><path
             id="path2476"
             style="fill:#ffffff;fill-opacity:1;fill-rule:nonzero;stroke:none"
             d="m 464.84375,246.88477 c -6.93945,-0.56153 -13.89746,-5.76856 -16.19141,-12.45313 -2.96191,-8.63086 7.66016,-10.05664 13.56641,-8.66992 1.30859,0.30664 1.3877,2.50976 -0.0996,2.49121 -4.73144,-0.0605 -12.90527,-0.34375 -9.97656,6.58398 2.10156,4.97168 7.97265,8.88282 13.01367,10.27832 1.11816,0.30957 0.84668,1.86329 -0.3125,1.76954 0,0 0,0 0,0 z" /></g><path
           d="m 307.16211,250.46922 c -17.82568,-9.42675 -44.25391,-3.30566 -51.44141,16.72754 -5.57959,15.55176 0.77637,34.19239 6.74805,48.64258 14.92773,36.12451 41.12256,66.0874 70.0293,91.81738 39.39941,35.06983 85.85937,63.34229 135.54883,81.15137 24.02246,8.60938 49.19531,14.39453 74.70117,15.92871 22.71093,1.36621 48.01367,-2.33789 64.39062,-19.67334 14.28125,-15.11621 13.14356,-36.4414 4.71875,-54.14355 -9,-18.90869 -24.83789,-34.51807 -38.94922,-49.64111 -1.06152,-1.13819 0.45996,-3.02588 1.59766,-1.88282 16.89648,16.98877 35.04199,33.97266 43.83008,56.84375 7.90625,20.57715 3.00097,42.64356 -14.08594,56.74903 -16.79199,13.86181 -39.76953,16.59179 -60.72363,15.62011 -24.79981,-1.1499 -49.24121,-6.85595 -72.69824,-14.77588 -49.44434,-16.69433 -95.47022,-44.55371 -135.07764,-78.33984 -29.52295,-25.1831 -55.76416,-54.58935 -72.64209,-89.77295 -8.31543,-17.33398 -16.70069,-39.40137 -10.81738,-58.73144 6.87548,-22.58985 36.65478,-29.66602 55.82421,-18.52539 1.21875,0.70898 0.32715,2.68261 -0.95312,2.00585 0,0 0,0 0,0 z"
           style="fill:#eb9e20;fill-opacity:1;fill-rule:nonzero;stroke:none"
           id="path2478" /></g><g
         id="g2480"><text
           id="text2482"
           transform="matrix(1,0,0,-0.8,254.31836,165.93945)"><tspan
             id="tspan2486"
             style="font-variant:normal;font-weight:normal;font-size:75px;font-family:CooperBlack;-inkscape-font-specification:CooperBlack;writing-mode:lr-tb;fill:none;stroke:#ffffff;stroke-width:4;stroke-linecap:butt;stroke-linejoin:miter;stroke-miterlimit:4;stroke-dasharray:none;stroke-opacity:1"
             x="0"
             y="0" /></text>
<text
           id="text2488"
           transform="matrix(1,0,0,-1,245.36523,126)"><tspan
             id="tspan2490"
             style="font-variant:normal;font-weight:normal;font-size:14px;font-family:CooperBlack;-inkscape-font-specification:CooperBlack;writing-mode:lr-tb;fill:#3653a3;fill-opacity:1;fill-rule:nonzero;stroke:none"
             x="0"
             y="0" /></text>
<text
           id="text2492"
           transform="matrix(1,0,0,-1,254.85107,144)"><tspan
             y="0"
             id="tspan2494"
             x="0"
             style="font-variant:normal;font-weight:normal;font-size:18px;font-family:ae_Khalid;-inkscape-font-specification:ae_Khalid;writing-mode:lr-tb;fill:#3653a3;fill-opacity:1;fill-rule:nonzero;stroke:none" /></text>
</g><flowRoot
         style="font-style:normal;font-weight:normal;font-size:40px;font-family:'Bitstream Vera Sans';fill:#000000;fill-opacity:1;stroke:none;stroke-width:1px;stroke-linecap:butt;stroke-linejoin:miter;stroke-opacity:1"
         id="flowRoot2498"
         xml:space="preserve"><flowRegion
           id="flowRegion2500"><rect
             transform="scale(1,-1)"
             y="505.51471"
             x="314.33823"
             height="79.044121"
             width="428.30884"
             id="rect2502" /></flowRegion><flowPara
           id="flowPara2504" /></flowRoot><g
         transform="matrix(1.0051835,0,0,0.99989332,-2.2392687,15.378294)"
         id="g4293"><path
           d="m 648.05635,126.32506 c 0,0 -432.1127,0 -432.1127,0 0,0 0,84.1532 0,84.1532 0,0 432.1127,0 432.1127,0 0,0 0,-84.1532 0,-84.1532 z"
           style="fill:#eb9e20;fill-opacity:1;fill-rule:nonzero;stroke:#ffffff;stroke-width:3.54122615;stroke-miterlimit:4;stroke-dasharray:none"
           id="path2438" /><g
           id="text2506"
           style="font-style:normal;font-weight:normal;font-size:69.05692291px;font-family:'Bitstream Vera Sans';fill:#000000;fill-opacity:1;stroke:none;stroke-width:1px;stroke-linecap:butt;stroke-linejoin:miter;stroke-opacity:1"
           transform="scale(0.94293065,-1.0605234)"><path
             id="path4697"
             style="font-style:normal;font-variant:normal;font-weight:bold;font-stretch:normal;font-size:85.59280396px;font-family:'Open Sans';-inkscape-font-specification:'Open Sans Bold'"
             d="m 240.72292,-128.24013 0,-61.10189 12.95594,0 0,61.10189 -12.95594,0 z" /><path
             id="path4699"
             style="font-style:normal;font-variant:normal;font-weight:bold;font-stretch:normal;font-size:85.59280396px;font-family:'Open Sans';-inkscape-font-specification:'Open Sans Bold'"
             d="m 323.3484,-128.24013 -16.46659,0 -26.58058,-46.22346 -0.37614,0 q 0.79408,12.24546 0.79408,17.46963 l 0,28.75383 -11.57676,0 0,-61.10189 16.3412,0 26.53879,45.76373 0.29255,0 q -0.6269,-11.91111 -0.6269,-16.84273 l 0,-28.921 11.66035,0 0,61.10189 z" /><path
             id="path4701"
             style="font-style:normal;font-variant:normal;font-weight:bold;font-stretch:normal;font-size:85.59280396px;font-family:'Open Sans';-inkscape-font-specification:'Open Sans Bold'"
             d="m 389.38191,-159.37618 q 0,15.0874 -8.60943,23.11173 -8.56764,8.02432 -24.78347,8.02432 l -17.30245,0 0,-61.10189 19.18315,0 q 14.96203,0 23.23711,7.89894 8.27509,7.89895 8.27509,22.0669 z m -13.45746,0.33435 q 0,-19.68468 -17.38604,-19.68468 l -6.89591,0 0,39.78728 5.55852,0 q 18.72343,0 18.72343,-20.1026 z" /><path
             id="path4703"
             style="font-style:normal;font-variant:normal;font-weight:bold;font-stretch:normal;font-size:85.59280396px;font-family:'Open Sans';-inkscape-font-specification:'Open Sans Bold'"
             d="m 402.04529,-128.24013 0,-61.10189 12.95595,0 0,61.10189 -12.95595,0 z" /></g><g
           id="text2514"
           style="font-style:normal;font-variant:normal;font-weight:normal;font-stretch:normal;font-size:57.62065887px;line-height:100%;font-family:cmmi10;-inkscape-font-specification:cmmi10;letter-spacing:0.4961262px;fill:#000000;fill-opacity:1;stroke:none;stroke-width:1px;stroke-linecap:butt;stroke-linejoin:miter;stroke-opacity:1"
           transform="scale(0.90157024,-1.1091759)"><path
             id="path4640"
             style="font-style:normal;font-variant:normal;font-weight:300;font-stretch:normal;font-size:33.67512894px;line-height:100%;font-family:'Open Sans';-inkscape-font-specification:'Open Sans Light';text-align:start;letter-spacing:0.4961262px;writing-mode:lr-tb;text-anchor:start"
             d="m 466.03039,-168.6717 q 0,5.72214 -2.86107,9.06005 -2.86107,3.32147 -7.89261,3.32147 -5.0151,0 -7.87617,-3.32147 -2.86107,-3.33791 -2.86107,-9.09294 0,-5.73858 2.87752,-9.02717 2.89395,-3.30503 7.89261,-3.30503 5.03153,0 7.87616,3.32147 2.84463,3.30503 2.84463,9.04362 z m -19.66575,0 q 0,5.16308 2.30201,7.99126 2.30201,2.81174 6.61006,2.81174 4.34093,0 6.6265,-2.7953 2.30201,-2.79529 2.30201,-8.0077 0,-5.19597 -2.30201,-7.95838 -2.28557,-2.77886 -6.59361,-2.77886 -4.29161,0 -6.62651,2.7953 -2.31845,2.7953 -2.31845,7.94194 z" /><path
             id="path4642"
             style="font-style:normal;font-variant:normal;font-weight:300;font-stretch:normal;font-size:33.67512894px;line-height:100%;font-family:'Open Sans';-inkscape-font-specification:'Open Sans Light';text-align:start;letter-spacing:0.4961262px;writing-mode:lr-tb;text-anchor:start"
             d="m 479.26979,-156.29018 q -4.12718,0 -6.01812,-3.09127 l -0.1151,0 0.0493,1.38121 q 0.0658,1.21678 0.0658,2.66376 l 0,6.80737 -1.62785,0 0,-25.96339 1.38121,0 0.31242,2.54865 0.0986,0 q 1.84161,-2.89395 5.88657,-2.89395 3.61745,0 5.50839,2.38422 1.90738,2.36778 1.90738,6.90603 0,4.40671 -2.00604,6.84026 -1.9896,2.41711 -5.44261,2.41711 z m -0.0329,-1.44697 q 2.74597,0 4.24228,-2.03893 1.51275,-2.03892 1.51275,-5.7057 0,-7.87616 -5.68926,-7.87616 -3.12415,0 -4.58757,1.72651 -1.46343,1.71006 -1.46343,5.59059 l 0,0.52618 q 0,4.19295 1.39765,5.98523 1.4141,1.79228 4.58758,1.79228 z" /><path
             id="path4644"
             style="font-style:normal;font-variant:normal;font-weight:300;font-stretch:normal;font-size:33.67512894px;line-height:100%;font-family:'Open Sans';-inkscape-font-specification:'Open Sans Light';text-align:start;letter-spacing:0.4961262px;writing-mode:lr-tb;text-anchor:start"
             d="m 499.39878,-156.29018 q -3.89698,0 -6.08389,-2.40066 -2.17046,-2.40067 -2.17046,-6.72516 0,-4.27517 2.10469,-6.84026 2.1047,-2.58154 5.67281,-2.58154 3.15705,0 4.98221,2.20335 1.82517,2.20335 1.82517,5.98523 l 0,1.31543 -12.87482,0 q 0.0329,3.68322 1.71007,5.62348 1.69362,1.94027 4.83422,1.94027 1.52919,0 2.6802,-0.21376 1.16745,-0.21376 2.94328,-0.9208 l 0,1.47986 q -1.51275,0.65772 -2.7953,0.88792 -1.28254,0.24664 -2.82818,0.24664 z m -0.47685,-17.10065 q -2.58154,0 -4.14361,1.71007 -1.56208,1.69362 -1.82517,4.89999 l 11.04965,0 q 0,-3.10771 -1.34832,-4.85066 -1.34832,-1.7594 -3.73255,-1.7594 z" /><path
             id="path4646"
             style="font-style:normal;font-variant:normal;font-weight:300;font-stretch:normal;font-size:33.67512894px;line-height:100%;font-family:'Open Sans';-inkscape-font-specification:'Open Sans Light';text-align:start;letter-spacing:0.4961262px;writing-mode:lr-tb;text-anchor:start"
             d="m 523.62206,-156.61903 0,-11.59227 q 0,-2.69664 -1.13456,-3.91342 -1.13456,-1.23322 -3.51879,-1.23322 -3.20637,0 -4.70268,1.62785 -1.47986,1.61141 -1.47986,5.2453 l 0,9.86576 -1.62785,0 0,-17.87347 1.3812,0 0.31242,2.44999 0.0987,0 q 1.74295,-2.79529 6.19898,-2.79529 6.08389,0 6.08389,6.52784 l 0,11.69093 -1.61141,0 z" /><path
             id="path4648"
             style="font-style:normal;font-variant:normal;font-weight:300;font-stretch:normal;font-size:33.67512894px;line-height:100%;font-family:'Open Sans';-inkscape-font-specification:'Open Sans Light';text-align:start;letter-spacing:0.4961262px;writing-mode:lr-tb;text-anchor:start"
             d="m 552.74817,-165.10359 -9.76711,0 -3.35435,8.48456 -1.85806,0 9.66845,-24.13823 1.06879,0 9.47113,24.13823 -1.89094,0 -3.33791,-8.48456 z m -9.15872,-1.51275 8.59966,0 -3.27215,-8.66542 q -0.41107,-1.01947 -0.98657,-2.82819 -0.44396,1.57852 -0.97014,2.86107 l -3.3708,8.63254 z" /><path
             id="path4650"
             style="font-style:normal;font-variant:normal;font-weight:300;font-stretch:normal;font-size:33.67512894px;line-height:100%;font-family:'Open Sans';-inkscape-font-specification:'Open Sans Light';text-align:start;letter-spacing:0.4961262px;writing-mode:lr-tb;text-anchor:start"
             d="m 572.53185,-161.27238 q 0,2.40066 -1.82516,3.69966 -1.82517,1.28254 -5.17953,1.28254 -3.58455,0 -5.68925,-1.10167 l 0,-1.7594 q 2.69664,1.34832 5.68925,1.34832 2.64732,0 4.01208,-0.87147 1.38121,-0.88792 1.38121,-2.35134 0,-1.34832 -1.10168,-2.26913 -1.08523,-0.9208 -3.58456,-1.80872 -2.6802,-0.97013 -3.76543,-1.66073 -1.08523,-0.70705 -1.64429,-1.57853 -0.54262,-0.88791 -0.54262,-2.15402 0,-2.00604 1.67718,-3.17349 1.69362,-1.16744 4.71912,-1.16744 2.89396,0 5.49194,1.08523 l -0.60839,1.47986 q -2.63087,-1.08523 -4.88355,-1.08523 -2.18691,0 -3.46946,0.72349 -1.28255,0.72349 -1.28255,2.00604 0,1.39765 0.98658,2.23624 1.00302,0.83859 3.89697,1.87449 2.41711,0.87148 3.51879,1.57852 1.10168,0.6906 1.64429,1.57852 0.55906,0.88792 0.55906,2.08826 z" /><path
             id="path4652"
             style="font-style:normal;font-variant:normal;font-weight:300;font-stretch:normal;font-size:33.67512894px;line-height:100%;font-family:'Open Sans';-inkscape-font-specification:'Open Sans Light';text-align:start;letter-spacing:0.4961262px;writing-mode:lr-tb;text-anchor:start"
             d="m 582.38401,-157.73715 q 1.54563,0 2.69664,-0.26309 l 0,1.31543 q -1.18389,0.39463 -2.72953,0.39463 -2.36778,0 -3.50234,-1.2661 -1.11812,-1.26611 -1.11812,-3.97919 l 0,-11.54294 -2.64731,0 0,-0.95369 2.64731,-0.73993 0.82214,-4.04496 0.83859,0 0,4.32449 5.2453,0 0,1.41409 -5.2453,0 0,11.31274 q 0,2.05536 0.72349,3.04194 0.72349,0.98658 2.26913,0.98658 z" /><path
             id="path4654"
             style="font-style:normal;font-variant:normal;font-weight:300;font-stretch:normal;font-size:33.67512894px;line-height:100%;font-family:'Open Sans';-inkscape-font-specification:'Open Sans Light';text-align:start;letter-spacing:0.4961262px;writing-mode:lr-tb;text-anchor:start"
             d="m 596.51133,-174.8378 q 1.13456,0 2.43355,0.2302 l -0.31241,1.56208 q -1.11812,-0.27953 -2.31846,-0.27953 -2.28556,0 -3.74898,1.94026 -1.46343,1.94027 -1.46343,4.9 l 0,9.86576 -1.62785,0 0,-17.87347 1.38121,0 0.16443,3.22281 0.1151,0 q 1.10168,-1.97315 2.35134,-2.76241 1.24966,-0.8057 3.0255,-0.8057 z" /><path
             id="path4656"
             style="font-style:normal;font-variant:normal;font-weight:300;font-stretch:normal;font-size:33.67512894px;line-height:100%;font-family:'Open Sans';-inkscape-font-specification:'Open Sans Light';text-align:start;letter-spacing:0.4961262px;writing-mode:lr-tb;text-anchor:start"
             d="m 617.84065,-165.58043 q 0,4.37382 -2.12114,6.84026 -2.12113,2.44999 -5.85368,2.44999 -2.35134,0 -4.14362,-1.13456 -1.79228,-1.13456 -2.74597,-3.2557 -0.95369,-2.12114 -0.95369,-4.89999 0,-4.37382 2.12114,-6.80738 2.12114,-2.44999 5.8208,-2.44999 3.68322,0 5.77147,2.48288 2.10469,2.46644 2.10469,6.77449 z m -14.10803,0 q 0,3.68321 1.6114,5.75502 1.62785,2.05537 4.58758,2.05537 2.95973,0 4.57114,-2.05537 1.62785,-2.07181 1.62785,-5.75502 0,-3.69966 -1.6443,-5.73859 -1.62785,-2.03892 -4.58757,-2.03892 -2.95973,0 -4.57114,2.03892 -1.59496,2.02248 -1.59496,5.73859 z" /><path
             id="path4658"
             style="font-style:normal;font-variant:normal;font-weight:300;font-stretch:normal;font-size:33.67512894px;line-height:100%;font-family:'Open Sans';-inkscape-font-specification:'Open Sans Light';text-align:start;letter-spacing:0.4961262px;writing-mode:lr-tb;text-anchor:start"
             d="m 635.74985,-156.61903 0,-11.59227 q 0,-2.69664 -1.13457,-3.91342 -1.13456,-1.23322 -3.51878,-1.23322 -3.20638,0 -4.70268,1.62785 -1.47987,1.61141 -1.47987,5.2453 l 0,9.86576 -1.62785,0 0,-17.87347 1.38121,0 0.31241,2.44999 0.0987,0 q 1.74295,-2.79529 6.19899,-2.79529 6.08388,0 6.08388,6.52784 l 0,11.69093 -1.6114,0 z" /><path
             id="path4660"
             style="font-style:normal;font-variant:normal;font-weight:300;font-stretch:normal;font-size:33.67512894px;line-height:100%;font-family:'Open Sans';-inkscape-font-specification:'Open Sans Light';text-align:start;letter-spacing:0.4961262px;writing-mode:lr-tb;text-anchor:start"
             d="m 658.42749,-165.58043 q 0,4.37382 -2.12114,6.84026 -2.12114,2.44999 -5.85368,2.44999 -2.35134,0 -4.14362,-1.13456 -1.79228,-1.13456 -2.74597,-3.2557 -0.95369,-2.12114 -0.95369,-4.89999 0,-4.37382 2.12114,-6.80738 2.12114,-2.44999 5.8208,-2.44999 3.68321,0 5.77147,2.48288 2.10469,2.46644 2.10469,6.77449 z m -14.10804,0 q 0,3.68321 1.61141,5.75502 1.62785,2.05537 4.58758,2.05537 2.95973,0 4.57114,-2.05537 1.62785,-2.07181 1.62785,-5.75502 0,-3.69966 -1.6443,-5.73859 -1.62785,-2.03892 -4.58758,-2.03892 -2.95972,0 -4.57113,2.03892 -1.59497,2.02248 -1.59497,5.73859 z" /><path
             id="path4662"
             style="font-style:normal;font-variant:normal;font-weight:300;font-stretch:normal;font-size:33.67512894px;line-height:100%;font-family:'Open Sans';-inkscape-font-specification:'Open Sans Light';text-align:start;letter-spacing:0.4961262px;writing-mode:lr-tb;text-anchor:start"
             d="m 686.20244,-156.61903 0,-11.72382 q 0,-2.61442 -1.01946,-3.81476 -1.01946,-1.20033 -3.12416,-1.20033 -2.74597,0 -4.0614,1.51275 -1.31544,1.51275 -1.31544,4.75201 l 0,10.47415 -1.66073,0 0,-12.2171 q 0,-4.52181 -4.14362,-4.52181 -2.81174,0 -4.09429,1.64429 -1.28255,1.62785 -1.28255,5.22886 l 0,9.86576 -1.62785,0 0,-17.87347 1.34832,0 0.3453,2.44999 0.0987,0 q 0.73993,-1.33187 2.10469,-2.05536 1.36477,-0.73993 3.00906,-0.73993 4.22584,0 5.42617,3.17348 l 0.0658,0 q 0.87148,-1.52919 2.3349,-2.35134 1.47986,-0.82214 3.35436,-0.82214 2.92684,0 4.39026,1.56207 1.46342,1.56208 1.46342,4.96577 l 0,11.69093 -1.61141,0 z" /><path
             id="path4664"
             style="font-style:normal;font-variant:normal;font-weight:300;font-stretch:normal;font-size:33.67512894px;line-height:100%;font-family:'Open Sans';-inkscape-font-specification:'Open Sans Light';text-align:start;letter-spacing:0.4961262px;writing-mode:lr-tb;text-anchor:start"
             d="m 691.10529,-174.4925 1.67717,0 3.78188,10.03019 q 1.72651,4.62046 2.18691,6.23187 l 0.0987,0 q 0.6906,-2.12114 2.25268,-6.33053 l 3.78187,-9.93153 1.67718,0 -8.00771,20.76742 q -0.97013,2.53221 -1.62785,3.42013 -0.65771,0.88792 -1.54563,1.33188 -0.87148,0.44396 -2.12114,0.44396 -0.93725,0 -2.08825,-0.3453 l 0,-1.41409 q 0.95369,0.26308 2.05536,0.26308 0.83859,0 1.47987,-0.39463 0.64127,-0.39463 1.151,-1.23322 0.52618,-0.82214 1.20034,-2.63087 0.6906,-1.79228 0.88792,-2.33489 l -6.84026,-17.87347 z" /><path
             id="path4666"
             style="font-style:normal;font-variant:normal;font-weight:300;font-stretch:normal;font-size:33.67512894px;line-height:100%;font-family:'Open Sans';-inkscape-font-specification:'Open Sans Light';text-align:start;letter-spacing:1.45970714px;writing-mode:lr-tb;text-anchor:start"
             d="m 445.82201,-122.9439 0,-24.03957 1.67718,0 0,24.03957 -1.67718,0 z" /><path
             id="path4668"
             style="font-style:normal;font-variant:normal;font-weight:300;font-stretch:normal;font-size:33.67512894px;line-height:100%;font-family:'Open Sans';-inkscape-font-specification:'Open Sans Light';text-align:start;letter-spacing:1.45970714px;writing-mode:lr-tb;text-anchor:start"
             d="m 467.33835,-122.9439 0,-11.59227 q 0,-2.69664 -1.13456,-3.91342 -1.13456,-1.23322 -3.51879,-1.23322 -3.20637,0 -4.70267,1.62785 -1.47987,1.61141 -1.47987,5.24529 l 0,9.86577 -1.62785,0 0,-17.87347 1.38121,0 0.31241,2.44999 0.0987,0 q 1.74295,-2.7953 6.19899,-2.7953 6.08388,0 6.08388,6.52785 l 0,11.69093 -1.61141,0 z" /><path
             id="path4670"
             style="font-style:normal;font-variant:normal;font-weight:300;font-stretch:normal;font-size:33.67512894px;line-height:100%;font-family:'Open Sans';-inkscape-font-specification:'Open Sans Light';text-align:start;letter-spacing:1.45970714px;writing-mode:lr-tb;text-anchor:start"
             d="m 487.16672,-127.59726 q 0,2.40067 -1.82517,3.69966 -1.82516,1.28255 -5.17952,1.28255 -3.58456,0 -5.68926,-1.10167 l 0,-1.7594 q 2.69665,1.34832 5.68926,1.34832 2.64731,0 4.01208,-0.87147 1.3812,-0.88792 1.3812,-2.35134 0,-1.34832 -1.10167,-2.26913 -1.08524,-0.9208 -3.58456,-1.80872 -2.6802,-0.97013 -3.76544,-1.66074 -1.08523,-0.70704 -1.64429,-1.57852 -0.54262,-0.88792 -0.54262,-2.15402 0,-2.00604 1.67718,-3.17349 1.69362,-1.16745 4.71912,-1.16745 2.89396,0 5.49194,1.08524 l -0.60838,1.47986 q -2.63087,-1.08523 -4.88356,-1.08523 -2.18691,0 -3.46945,0.72349 -1.28255,0.72349 -1.28255,2.00604 0,1.39764 0.98657,2.23623 1.00302,0.83859 3.89698,1.8745 2.41711,0.87147 3.51879,1.57852 1.10167,0.6906 1.64429,1.57852 0.55906,0.88792 0.55906,2.08825 z" /><path
             id="path4672"
             style="font-style:normal;font-variant:normal;font-weight:300;font-stretch:normal;font-size:33.67512894px;line-height:100%;font-family:'Open Sans';-inkscape-font-specification:'Open Sans Light';text-align:start;letter-spacing:1.45970714px;writing-mode:lr-tb;text-anchor:start"
             d="m 498.8631,-124.06202 q 1.54563,0 2.69664,-0.26309 l 0,1.31543 q -1.18389,0.39463 -2.72953,0.39463 -2.36778,0 -3.50234,-1.2661 -1.11812,-1.26611 -1.11812,-3.97919 l 0,-11.54294 -2.64732,0 0,-0.95369 2.64732,-0.73993 0.82214,-4.04497 0.83859,0 0,4.3245 5.2453,0 0,1.41409 -5.2453,0 0,11.31274 q 0,2.05536 0.72349,3.04194 0.72349,0.98658 2.26913,0.98658 z" /><path
             id="path4674"
             style="font-style:normal;font-variant:normal;font-weight:300;font-stretch:normal;font-size:33.67512894px;line-height:100%;font-family:'Open Sans';-inkscape-font-specification:'Open Sans Light';text-align:start;letter-spacing:1.45970714px;writing-mode:lr-tb;text-anchor:start"
             d="m 514.36202,-141.16268 q 1.13456,0 2.43355,0.23021 l -0.31242,1.56207 q -1.11811,-0.27953 -2.31845,-0.27953 -2.28557,0 -3.74899,1.94027 -1.46342,1.94027 -1.46342,4.89999 l 0,9.86577 -1.62785,0 0,-17.87347 1.38121,0 0.16443,3.22281 0.1151,0 q 1.10167,-1.97315 2.35134,-2.76241 1.24966,-0.80571 3.0255,-0.80571 z" /><path
             id="path4676"
             style="font-style:normal;font-variant:normal;font-weight:300;font-stretch:normal;font-size:33.67512894px;line-height:100%;font-family:'Open Sans';-inkscape-font-specification:'Open Sans Light';text-align:start;letter-spacing:1.45970714px;writing-mode:lr-tb;text-anchor:start"
             d="m 523.44672,-140.81737 0,11.57582 q 0,2.69664 1.13456,3.92986 1.13456,1.21678 3.51879,1.21678 3.18993,0 4.68623,-1.61141 1.51275,-1.61141 1.51275,-5.24529 l 0,-9.86576 1.61141,0 0,17.87347 -1.38121,0 -0.29597,-2.46644 -0.0987,0 q -1.74295,2.79529 -6.19898,2.79529 -6.10033,0 -6.10033,-6.52784 l 0,-11.67448 1.61141,0 z" /><path
             id="path4678"
             style="font-style:normal;font-variant:normal;font-weight:300;font-stretch:normal;font-size:33.67512894px;line-height:100%;font-family:'Open Sans';-inkscape-font-specification:'Open Sans Light';text-align:start;letter-spacing:1.45970714px;writing-mode:lr-tb;text-anchor:start"
             d="m 564.72967,-122.9439 0,-11.72382 q 0,-2.61442 -1.01946,-3.81476 -1.01947,-1.20033 -3.12416,-1.20033 -2.74597,0 -4.06141,1.51275 -1.31543,1.51275 -1.31543,4.75201 l 0,10.47415 -1.66074,0 0,-12.2171 q 0,-4.52181 -4.14362,-4.52181 -2.81174,0 -4.09429,1.64429 -1.28255,1.62785 -1.28255,5.22885 l 0,9.86577 -1.62785,0 0,-17.87347 1.34832,0 0.3453,2.44999 0.0987,0 q 0.73993,-1.33187 2.1047,-2.05536 1.36476,-0.73994 3.00905,-0.73994 4.22584,0 5.42617,3.17349 l 0.0658,0 q 0.87148,-1.52919 2.3349,-2.35134 1.47987,-0.82215 3.35436,-0.82215 2.92684,0 4.39026,1.56208 1.46342,1.56208 1.46342,4.96577 l 0,11.69093 -1.6114,0 z" /><path
             id="path4680"
             style="font-style:normal;font-variant:normal;font-weight:300;font-stretch:normal;font-size:33.67512894px;line-height:100%;font-family:'Open Sans';-inkscape-font-specification:'Open Sans Light';text-align:start;letter-spacing:1.45970714px;writing-mode:lr-tb;text-anchor:start"
             d="m 580.36018,-122.61505 q -3.89697,0 -6.08389,-2.40066 -2.17046,-2.40067 -2.17046,-6.72516 0,-4.27517 2.10469,-6.84027 2.1047,-2.58154 5.67282,-2.58154 3.15704,0 4.9822,2.20336 1.82517,2.20335 1.82517,5.98523 l 0,1.31543 -12.87482,0 q 0.0329,3.68322 1.71007,5.62348 1.69362,1.94027 4.83422,1.94027 1.52919,0 2.6802,-0.21376 1.16745,-0.21376 2.94328,-0.9208 l 0,1.47986 q -1.51275,0.65772 -2.79529,0.88792 -1.28255,0.24664 -2.82819,0.24664 z m -0.47684,-17.10065 q -2.58155,0 -4.14362,1.71007 -1.56208,1.69362 -1.82517,4.89999 l 11.04965,0 q 0,-3.10771 -1.34832,-4.85066 -1.34832,-1.7594 -3.73254,-1.7594 z" /><path
             id="path4682"
             style="font-style:normal;font-variant:normal;font-weight:300;font-stretch:normal;font-size:33.67512894px;line-height:100%;font-family:'Open Sans';-inkscape-font-specification:'Open Sans Light';text-align:start;letter-spacing:1.45970714px;writing-mode:lr-tb;text-anchor:start"
             d="m 604.91915,-122.9439 0,-11.59227 q 0,-2.69664 -1.13456,-3.91342 -1.13456,-1.23322 -3.51879,-1.23322 -3.20637,0 -4.70268,1.62785 -1.47986,1.61141 -1.47986,5.24529 l 0,9.86577 -1.62785,0 0,-17.87347 1.3812,0 0.31242,2.44999 0.0987,0 q 1.74295,-2.7953 6.19898,-2.7953 6.08389,0 6.08389,6.52785 l 0,11.69093 -1.61141,0 z" /><path
             id="path4684"
             style="font-style:normal;font-variant:normal;font-weight:300;font-stretch:normal;font-size:33.67512894px;line-height:100%;font-family:'Open Sans';-inkscape-font-specification:'Open Sans Light';text-align:start;letter-spacing:1.45970714px;writing-mode:lr-tb;text-anchor:start"
             d="m 619.59596,-124.06202 q 1.54563,0 2.69664,-0.26309 l 0,1.31543 q -1.18389,0.39463 -2.72953,0.39463 -2.36778,0 -3.50234,-1.2661 -1.11812,-1.26611 -1.11812,-3.97919 l 0,-11.54294 -2.64731,0 0,-0.95369 2.64731,-0.73993 0.82214,-4.04497 0.83859,0 0,4.3245 5.2453,0 0,1.41409 -5.2453,0 0,11.31274 q 0,2.05536 0.72349,3.04194 0.72349,0.98658 2.26913,0.98658 z" /><path
             id="path4686"
             style="font-style:normal;font-variant:normal;font-weight:300;font-stretch:normal;font-size:33.67512894px;line-height:100%;font-family:'Open Sans';-inkscape-font-specification:'Open Sans Light';text-align:start;letter-spacing:1.45970714px;writing-mode:lr-tb;text-anchor:start"
             d="m 640.29084,-122.9439 -0.41108,-2.82819 -0.13154,0 q -1.34832,1.72651 -2.77885,2.45 -1.4141,0.70704 -3.35436,0.70704 -2.63087,0 -4.09429,-1.34832 -1.46343,-1.34832 -1.46343,-3.73254 0,-2.61443 2.17047,-4.06141 2.18691,-1.44698 6.31409,-1.52919 l 3.40369,-0.0987 0,-1.18389 q 0,-2.54865 -1.03591,-3.84765 -1.0359,-1.29899 -3.33791,-1.29899 -2.48289,0 -5.14664,1.38121 l -0.60839,-1.41409 q 2.94328,-1.38121 5.8208,-1.38121 2.94328,0 4.39026,1.52919 1.46342,1.5292 1.46342,4.76845 l 0,11.88825 -1.20033,0 z m -6.57718,-1.15101 q 2.86107,0 4.50537,-1.62785 1.66073,-1.64429 1.66073,-4.55469 l 0,-1.7594 -3.12415,0.13155 q -3.76543,0.18087 -5.37684,1.18389 -1.59497,0.98657 -1.59497,3.09127 0,1.67718 1.01946,2.61443 1.03591,0.9208 2.9104,0.9208 z" /><path
             id="path4688"
             style="font-style:normal;font-variant:normal;font-weight:300;font-stretch:normal;font-size:33.67512894px;line-height:100%;font-family:'Open Sans';-inkscape-font-specification:'Open Sans Light';text-align:start;letter-spacing:1.45970714px;writing-mode:lr-tb;text-anchor:start"
             d="m 654.55654,-124.06202 q 1.54563,0 2.69664,-0.26309 l 0,1.31543 q -1.18389,0.39463 -2.72953,0.39463 -2.36778,0 -3.50234,-1.2661 -1.11812,-1.26611 -1.11812,-3.97919 l 0,-11.54294 -2.64732,0 0,-0.95369 2.64732,-0.73993 0.82214,-4.04497 0.83859,0 0,4.3245 5.2453,0 0,1.41409 -5.2453,0 0,11.31274 q 0,2.05536 0.72349,3.04194 0.72349,0.98658 2.26913,0.98658 z" /><path
             id="path4690"
             style="font-style:normal;font-variant:normal;font-weight:300;font-stretch:normal;font-size:33.67512894px;line-height:100%;font-family:'Open Sans';-inkscape-font-specification:'Open Sans Light';text-align:start;letter-spacing:1.45970714px;writing-mode:lr-tb;text-anchor:start"
             d="m 664.87594,-122.9439 -1.62785,0 0,-17.87347 1.62785,0 0,17.87347 z m -1.85805,-22.83924 q 0,-1.57852 1.0359,-1.57852 0.50974,0 0.78927,0.41107 0.29597,0.41107 0.29597,1.16745 0,0.73993 -0.29597,1.16745 -0.27953,0.42751 -0.78927,0.42751 -1.0359,0 -1.0359,-1.59496 z" /><path
             id="path4692"
             style="font-style:normal;font-variant:normal;font-weight:300;font-stretch:normal;font-size:33.67512894px;line-height:100%;font-family:'Open Sans';-inkscape-font-specification:'Open Sans Light';text-align:start;letter-spacing:1.45970714px;writing-mode:lr-tb;text-anchor:start"
             d="m 686.72183,-131.9053 q 0,4.37382 -2.12114,6.84026 -2.12113,2.44999 -5.85368,2.44999 -2.35134,0 -4.14362,-1.13456 -1.79228,-1.13456 -2.74597,-3.2557 -0.95369,-2.12114 -0.95369,-4.89999 0,-4.37382 2.12114,-6.80738 2.12114,-2.45 5.8208,-2.45 3.68321,0 5.77147,2.48289 2.10469,2.46644 2.10469,6.77449 z m -14.10804,0 q 0,3.68321 1.61141,5.75502 1.62785,2.05537 4.58758,2.05537 2.95973,0 4.57114,-2.05537 1.62785,-2.07181 1.62785,-5.75502 0,-3.69966 -1.6443,-5.73859 -1.62785,-2.03892 -4.58757,-2.03892 -2.95973,0 -4.57114,2.03892 -1.59497,2.02248 -1.59497,5.73859 z" /><path
             id="path4694"
             style="font-style:normal;font-variant:normal;font-weight:300;font-stretch:normal;font-size:33.67512894px;line-height:100%;font-family:'Open Sans';-inkscape-font-specification:'Open Sans Light';text-align:start;letter-spacing:1.45970714px;writing-mode:lr-tb;text-anchor:start"
             d="m 704.95027,-122.9439 0,-11.59227 q 0,-2.69664 -1.13456,-3.91342 -1.13456,-1.23322 -3.51879,-1.23322 -3.20637,0 -4.70268,1.62785 -1.47986,1.61141 -1.47986,5.24529 l 0,9.86577 -1.62785,0 0,-17.87347 1.3812,0 0.31242,2.44999 0.0987,0 q 1.74295,-2.7953 6.19898,-2.7953 6.08389,0 6.08389,6.52785 l 0,11.69093 -1.61141,0 z" /></g></g></g></g></svg>