<?xml version="1.0" encoding="UTF-8" standalone="no"?>
<svg
   xmlns:dc="http://purl.org/dc/elements/1.1/"
   xmlns:cc="http://creativecommons.org/ns#"
   xmlns:rdf="http://www.w3.org/1999/02/22-rdf-syntax-ns#"
   xmlns:svg="http://www.w3.org/2000/svg"
   xmlns="http://www.w3.org/2000/svg"
   xmlns:sodipodi="http://sodipodi.sourceforge.net/DTD/sodipodi-0.dtd"
   xmlns:inkscape="http://www.inkscape.org/namespaces/inkscape"
   id="svg2403"
   width="600"
   height="600"
   xml:space="preserve"
   version="1.1"
   inkscape:version="0.91 r13725"
   sodipodi:docname="indi_logo_black-uneven.svg"><sodipodi:namedview
     pagecolor="#ffffff"
     bordercolor="#666666"
     borderopacity="1"
     objecttolerance="10"
     gridtolerance="10"
     guidetolerance="10"
     inkscape:pageopacity="0"
     inkscape:pageshadow="2"
     inkscape:window-width="2560"
     inkscape:window-height="1322"
     id="namedview4289"
     showgrid="false"
     inkscape:zoom="1.7733333"
     inkscape:cx="300"
     inkscape:cy="300"
     inkscape:window-x="0"
     inkscape:window-y="44"
     inkscape:window-maximized="1"
     inkscape:current-layer="g4293" /><metadata
     id="metadata2408"><rdf:RDF><cc:Work
         rdf:about=""><dc:format>image/svg+xml</dc:format><dc:type
           rdf:resource="http://purl.org/dc/dcmitype/StillImage" /><dc:title /></cc:Work></rdf:RDF></metadata><defs
     id="defs2406"><linearGradient
       x1="0"
       y1="0"
       x2="1"
       y2="0"
       gradientUnits="userSpaceOnUse"
       gradientTransform="matrix(-2e-5,-431.99951,431.99951,-2e-5,432,-144)"
       spreadMethod="pad"
       id="linearGradient2426"><stop
         style="stop-opacity:1;stop-color:#3753a5"
         offset="0"
         id="stop2428" /><stop
         style="stop-opacity:1;stop-color:#1e2942"
         offset="1"
         id="stop2430" /></linearGradient></defs><g
     id="g2412"
     transform="matrix(1.25,0,0,-1.25,0,600)"><g
       id="g4207"
       transform="matrix(1.0961102,0,0,1.0961102,-233.51961,-153.36202)"><g
         transform="scale(1,-1)"
         id="g2414"
         style="stroke:#ffffff;stroke-width:3.65393448;stroke-miterlimit:4;stroke-dasharray:none"><g
           id="g2416"
           style="stroke:#ffffff;stroke-width:3.65393448;stroke-miterlimit:4;stroke-dasharray:none"><g
             id="g2422"
             style="stroke:#ffffff;stroke-width:3.65393448;stroke-miterlimit:4;stroke-dasharray:none"><g
               id="g2424"
               style="stroke:#ffffff;stroke-width:3.65393448;stroke-miterlimit:4;stroke-dasharray:none"><path
                 id="path2432"
                 style="fill:url(#linearGradient2426);stroke:#ffffff;stroke-width:3.65393448;stroke-miterlimit:4;stroke-dasharray:none"
                 d="m 216,-576 c 0,0 432,0 432,0 0,0 -216,432 -216,432 0,0 -216,-432 -216,-432 z" /></g></g></g></g><g
         id="g4325"><g
           id="g4309"
           transform="translate(0,2.9194144)"><path
             d="m 486,454.5 c 0,-32.30859 -26.19141,-58.5 -58.5,-58.5 -32.30859,0 -58.5,26.19141 -58.5,58.5 0,32.30859 26.19141,58.5 58.5,58.5 32.30859,0 58.5,-26.19141 58.5,-58.5 z"
             style="fill:#ffffff;fill-opacity:1;fill-rule:nonzero;stroke:none"
             id="path2442" /><path
             d="m 306,535.5 c 0,-2.48535 -2.01465,-4.5 -4.5,-4.5 -2.48535,0 -4.5,2.01465 -4.5,4.5 0,2.48535 2.01465,4.5 4.5,4.5 2.48535,0 4.5,-2.01465 4.5,-4.5 z"
             style="fill:#ffffff;fill-opacity:1;fill-rule:nonzero;stroke:none"
             id="path2444" /><path
             d="m 394.03125,540 c 0,-3.8833 -3.14795,-7.03125 -7.03125,-7.03125 -3.8833,0 -7.03125,3.14795 -7.03125,7.03125 0,3.8833 3.14795,7.03125 7.03125,7.03125 3.8833,0 7.03125,-3.14795 7.03125,-7.03125 z"
             style="fill:#ffffff;fill-opacity:1;fill-rule:nonzero;stroke:none"
             id="path2446" /><path
             d="m 324,454.5 c 0,-2.48535 -2.01465,-4.5 -4.5,-4.5 -2.48535,0 -4.5,2.01465 -4.5,4.5 0,2.48535 2.01465,4.5 4.5,4.5 2.48535,0 4.5,-2.01465 4.5,-4.5 z"
             style="fill:#ffffff;fill-opacity:1;fill-rule:nonzero;stroke:none"
             id="path2448" /><path
             d="m 469.96875,378 c 0,-1.0874 -0.88184,-1.96875 -1.96875,-1.96875 -1.08691,0 -1.96875,0.88135 -1.96875,1.96875 0,1.0874 0.88184,1.96875 1.96875,1.96875 1.08691,0 1.96875,-0.88135 1.96875,-1.96875 z"
             style="fill:#ffffff;fill-opacity:1;fill-rule:nonzero;stroke:none"
             id="path2450" /><path
             d="m 531,441 c 0,-4.9707 -4.0293,-9 -9,-9 -4.9707,0 -9,4.0293 -9,9 0,4.9707 4.0293,9 9,9 4.9707,0 9,-4.0293 9,-9 z"
             style="fill:#ffffff;fill-opacity:1;fill-rule:nonzero;stroke:none"
             id="path2452" /><path
             d="m 540,526.5 c 0,-2.48535 -2.01465,-4.5 -4.5,-4.5 -2.48535,0 -4.5,2.01465 -4.5,4.5 0,2.48535 2.01465,4.5 4.5,4.5 2.48535,0 4.5,-2.01465 4.5,-4.5 z"
             style="fill:#ffffff;fill-opacity:1;fill-rule:nonzero;stroke:none"
             id="path2454" /><path
             d="m 394.03125,324 c 0,-3.8833 -3.14795,-7.03125 -7.03125,-7.03125 -3.8833,0 -7.03125,3.14795 -7.03125,7.03125 0,3.8833 3.14795,7.03125 7.03125,7.03125 3.8833,0 7.03125,-3.14795 7.03125,-7.03125 z"
             style="fill:#ffffff;fill-opacity:1;fill-rule:nonzero;stroke:none"
             id="path2456" /><path
             d="m 509,431 c 7,10 21,15 32,20"
             style="fill:#ffffff;fill-opacity:1;fill-rule:nonzero;stroke:none"
             id="path2458" /><path
             d="m 509.87695,430.38623 c 8.0459,10.37451 20.52539,13.6792 31.45801,19.90772 0.88867,0.50634 0.27442,1.73388 -0.66992,1.4121 -11.6875,-3.98535 -25.18457,-9.67871 -32.54199,-20.09228 -0.80078,-1.13379 0.91211,-2.31299 1.7539,-1.22754 0,0 0,0 0,0 z"
             style="fill:#ffffff;fill-opacity:1;fill-rule:nonzero;stroke:none"
             id="path2460" /><path
             d="m 305,525 c -2.92578,6.46436 -3.9375,13.72461 -10,18"
             style="fill:#ffffff;fill-opacity:1;fill-rule:nonzero;stroke:none"
             id="path2462" /><path
             d="m 305.93896,525.4458 c -2.62402,6.15772 -3.97607,14.80859 -10.45068,18.25195 -0.78662,0.41846 -1.86035,-0.48632 -1.13769,-1.24853 2.39257,-2.5249 4.34863,-4.91309 5.8081,-8.11182 1.45801,-3.19482 2.47022,-6.57519 3.90235,-9.7832 0.54736,-1.22607 2.40185,-0.33838 1.87792,0.8916 0,0 0,0 0,0 z"
             style="fill:#ffffff;fill-opacity:1;fill-rule:nonzero;stroke:none"
             id="path2464" /><path
             d="m 290,529 c 4,5 12,9 19,11"
             style="fill:#ffffff;fill-opacity:1;fill-rule:nonzero;stroke:none"
             id="path2466" /><path
             d="m 290.53564,528.36816 c 5.67334,5.0459 11.82227,8.09961 18.89014,10.73536 1.05371,0.39306 0.48438,2.11914 -0.59814,1.87353 -6.91455,-1.56934 -15.55078,-5.271 -19.50586,-11.50195 -0.49219,-0.7749 0.48779,-1.75244 1.21386,-1.10694 0,0 0,0 0,0 z"
             style="fill:#ffffff;fill-opacity:1;fill-rule:nonzero;stroke:none"
             id="path2468" /></g><g
           transform="translate(0,11.688857)"
           id="g4303"><path
             d="m 371.71436,277.64844 c 2.01367,0.84961 4.00878,1.73437 6.03759,2.55273 4.56543,1.84082 9.21143,3.48242 13.85352,5.11817 9.96582,3.51269 20.42285,5.26855 30.89453,6.54882 24.32129,2.97364 54.11328,2.97168 73.52344,-14.26367 1.44238,-1.28027 3.6582,1.15332 2.27539,2.49707 -20.23438,19.6753 -54.48145,18.27051 -80.34278,14.72852 -11.66113,-1.59766 -22.58935,-4.375 -33.5874,-8.46387 -2.33447,-0.86719 -19.92085,-5.58102 -16.75972,-10.14059 2.46487,0.3781 1.32893,0.19919 4.10543,1.42282 z"
             style="fill:#ffffff;fill-opacity:1;fill-rule:nonzero;stroke:none"
             id="path2470" /><path
             d="m 381.45508,266.46387 c 6.17969,5.29297 14.75293,7.80371 22.48144,9.75879 10.01563,2.53515 20.43067,3.79394 30.7461,4.09863 8.80371,0.25976 18.07519,-0.14844 26.48828,-2.96484 3.70508,-1.24024 7.3789,-3.45899 9.83398,-6.51856 3.33203,-4.14941 -2.39258,-7.9834 -5.43847,-9.82226 -6.80469,-4.10743 -14.56739,-6.64942 -21.84766,-9.77149 -6.88379,-2.95117 -13.48926,-6.8916 -19.58008,-11.23242 -4.03222,-2.87305 -10.4082,-7.38281 -10.68066,-12.91992 -0.30078,-6.1084 9.40429,-6.90625 13.45117,-7.0625 0.99902,0 1.99805,-0.008 2.99609,-0.0254 1.27442,-0.0156 1.48828,1.91211 0.18946,1.99218 -4.04981,0.24805 -10.14746,0.27051 -13.34961,3.20508 -2.51856,2.30664 1.10156,6.15332 2.68554,7.81934 5.55372,5.83984 13.01758,10.15039 20.11231,13.81933 6.61523,3.4209 13.71191,5.74512 20.55371,8.65235 5.27832,2.24316 13.47559,5.62695 14.47949,12.11914 0.94922,6.1416 -7.85351,10.55371 -12.47656,12.25293 -7.79492,2.86426 -16.57617,3.18847 -24.7832,3.14844 -9.8252,-0.0488 -19.6836,-1.18067 -29.28516,-3.24317 -7.73437,-1.66211 -16.15625,-3.90918 -22.81055,-8.35937 -1.70068,-1.13672 -3.28076,-2.37305 -4.67578,-3.87403 -0.59961,-0.64453 0.20215,-1.67871 0.91016,-1.07226 0,0 0,0 0,0 z"
             style="fill:#ffffff;fill-opacity:1;fill-rule:nonzero;stroke:none"
             id="path2472" /><path
             d="m 397.27148,261.42871 c 4.6084,2.21875 9.28418,5.43262 14.62891,4.04004 4.5752,-1.19238 6.02149,-3.83008 3.40723,-7.76367 -3.58496,-5.39356 -9.44434,-8.80957 -13.17774,-14.0957 -0.6914,-0.97852 0.65039,-2.23633 1.55762,-1.41993 3.61328,3.25391 7.34375,6.33008 10.73926,9.83203 2.29394,2.36524 5.90137,6.18457 5.3457,9.8584 -0.61621,4.07325 -4.8291,5.47168 -8.33496,6.30274 -5.33203,1.26465 -11.05127,-2.35157 -14.84668,-5.7002 -0.53467,-0.47168 0.0244,-1.37012 0.68066,-1.05371 0,0 0,0 0,0 z"
             style="fill:#ffffff;fill-opacity:1;fill-rule:nonzero;stroke:none"
             id="path2474" /><path
             d="m 464.84375,246.88477 c -6.93945,-0.56153 -13.89746,-5.76856 -16.19141,-12.45313 -2.96191,-8.63086 7.66016,-10.05664 13.56641,-8.66992 1.30859,0.30664 1.3877,2.50976 -0.0996,2.49121 -4.73144,-0.0605 -12.90527,-0.34375 -9.97656,6.58398 2.10156,4.97168 7.97265,8.88282 13.01367,10.27832 1.11816,0.30957 0.84668,1.86329 -0.3125,1.76954 0,0 0,0 0,0 z"
             style="fill:#ffffff;fill-opacity:1;fill-rule:nonzero;stroke:none"
             id="path2476" /></g><path
           id="path2478"
           style="fill:#eb9e20;fill-opacity:1;fill-rule:nonzero;stroke:none"
           d="m 307.16211,250.46922 c -17.82568,-9.42675 -44.25391,-3.30566 -51.44141,16.72754 -5.57959,15.55176 0.77637,34.19239 6.74805,48.64258 14.92773,36.12451 41.12256,66.0874 70.0293,91.81738 39.39941,35.06983 85.85937,63.34229 135.54883,81.15137 24.02246,8.60938 49.19531,14.39453 74.70117,15.92871 22.71093,1.36621 48.01367,-2.33789 64.39062,-19.67334 14.28125,-15.11621 13.14356,-36.4414 4.71875,-54.14355 -9,-18.90869 -24.83789,-34.51807 -38.94922,-49.64111 -1.06152,-1.13819 0.45996,-3.02588 1.59766,-1.88282 16.89648,16.98877 35.04199,33.97266 43.83008,56.84375 7.90625,20.57715 3.00097,42.64356 -14.08594,56.74903 -16.79199,13.86181 -39.76953,16.59179 -60.72363,15.62011 -24.79981,-1.1499 -49.24121,-6.85595 -72.69824,-14.77588 -49.44434,-16.69433 -95.47022,-44.55371 -135.07764,-78.33984 -29.52295,-25.1831 -55.76416,-54.58935 -72.64209,-89.77295 -8.31543,-17.33398 -16.70069,-39.40137 -10.81738,-58.73144 6.87548,-22.58985 36.65478,-29.66602 55.82421,-18.52539 1.21875,0.70898 0.32715,2.68261 -0.95312,2.00585 0,0 0,0 0,0 z" /></g><g
         id="g2480"><text
           transform="matrix(1,0,0,-0.8,254.31836,165.93945)"
           id="text2482"><tspan
             y="0"
             x="0"
             style="font-variant:normal;font-weight:normal;font-size:75px;font-family:CooperBlack;-inkscape-font-specification:CooperBlack;writing-mode:lr-tb;fill:none;stroke:#ffffff;stroke-width:4;stroke-linecap:butt;stroke-linejoin:miter;stroke-miterlimit:4;stroke-dasharray:none;stroke-opacity:1"
             id="tspan2486" /></text>
<text
           transform="matrix(1,0,0,-1,245.36523,126)"
           id="text2488"><tspan
             y="0"
             x="0"
             style="font-variant:normal;font-weight:normal;font-size:14px;font-family:CooperBlack;-inkscape-font-specification:CooperBlack;writing-mode:lr-tb;fill:#3653a3;fill-opacity:1;fill-rule:nonzero;stroke:none"
             id="tspan2490" /></text>
<text
           transform="matrix(1,0,0,-1,254.85107,144)"
           id="text2492"><tspan
             style="font-variant:normal;font-weight:normal;font-size:18px;font-family:ae_Khalid;-inkscape-font-specification:ae_Khalid;writing-mode:lr-tb;fill:#3653a3;fill-opacity:1;fill-rule:nonzero;stroke:none"
             x="0"
             id="tspan2494"
             y="0" /></text>
</g><flowRoot
         xml:space="preserve"
         id="flowRoot2498"
         style="font-style:normal;font-weight:normal;font-size:40px;font-family:'Bitstream Vera Sans';fill:#000000;fill-opacity:1;stroke:none;stroke-width:1px;stroke-linecap:butt;stroke-linejoin:miter;stroke-opacity:1"><flowRegion
           id="flowRegion2500"><rect
             id="rect2502"
             width="428.30884"
             height="79.044121"
             x="314.33823"
             y="505.51471"
             transform="scale(1,-1)" /></flowRegion><flowPara
           id="flowPara2504" /></flowRoot><g
         id="g4293"
         transform="matrix(1.0051835,0,0,0.99989332,-2.2392687,15.378294)"><path
           id="path2438"
           style="fill:#eb9e20;fill-opacity:1;fill-rule:nonzero;stroke:#ffffff;stroke-width:3.54122615;stroke-miterlimit:4;stroke-dasharray:none"
           d="m 648.05635,126.32506 c 0,0 -432.1127,0 -432.1127,0 0,0 0,84.1532 0,84.1532 0,0 432.1127,0 432.1127,0 0,0 0,-84.1532 0,-84.1532 z" /><g
           transform="matrix(0.95593742,0,0,-1.0751522,-3.1310283,-1.876005)"
           style="font-style:normal;font-weight:normal;font-size:69.05692291px;font-family:'Bitstream Vera Sans';fill:#000000;fill-opacity:1;stroke:none;stroke-width:1px;stroke-linecap:butt;stroke-linejoin:miter;stroke-opacity:1"
           id="text2506"><path
             d="m 240.72292,-128.24013 0,-61.10189 12.95594,0 0,61.10189 -12.95594,0 z"
             style="font-style:normal;font-variant:normal;font-weight:bold;font-stretch:normal;font-size:85.59280396px;font-family:'Open Sans';-inkscape-font-specification:'Open Sans Bold'"
             id="path4697" /><path
             d="m 323.3484,-128.24013 -16.46659,0 -26.58058,-46.22346 -0.37614,0 q 0.79408,12.24546 0.79408,17.46963 l 0,28.75383 -11.57676,0 0,-61.10189 16.3412,0 26.53879,45.76373 0.29255,0 q -0.6269,-11.91111 -0.6269,-16.84273 l 0,-28.921 11.66035,0 0,61.10189 z"
             style="font-style:normal;font-variant:normal;font-weight:bold;font-stretch:normal;font-size:85.59280396px;font-family:'Open Sans';-inkscape-font-specification:'Open Sans Bold'"
             id="path4699" /><path
             d="m 389.38191,-159.37618 q 0,15.0874 -8.60943,23.11173 -8.56764,8.02432 -24.78347,8.02432 l -17.30245,0 0,-61.10189 19.18315,0 q 14.96203,0 23.23711,7.89894 8.27509,7.89895 8.27509,22.0669 z m -13.45746,0.33435 q 0,-19.68468 -17.38604,-19.68468 l -6.89591,0 0,39.78728 5.55852,0 q 18.72343,0 18.72343,-20.1026 z"
             style="font-style:normal;font-variant:normal;font-weight:bold;font-stretch:normal;font-size:85.59280396px;font-family:'Open Sans';-inkscape-font-specification:'Open Sans Bold'"
             id="path4701" /><path
             d="m 402.04529,-128.24013 0,-61.10189 12.95595,0 0,61.10189 -12.95595,0 z"
             style="font-style:normal;font-variant:normal;font-weight:bold;font-stretch:normal;font-size:85.59280396px;font-family:'Open Sans';-inkscape-font-specification:'Open Sans Bold'"
             id="path4703" /></g><g
           transform="matrix(0.73242509,0,0,-0.73630016,211.85236,567.31977)"
           style="font-style:normal;font-weight:normal;font-size:40px;line-height:100%;font-family:Sans;letter-spacing:0px;word-spacing:0px;fill:#000000;fill-opacity:1;stroke:none;stroke-width:1px;stroke-linecap:butt;stroke-linejoin:miter;stroke-opacity:1"
           id="flowRoot4816"><path
             d="m 292.62109,521.77758 q 0,6.85547 -3.47656,10.78125 -3.45703,3.92578 -9.62891,3.92578 -6.30859,0 -9.74609,-3.84766 -3.41797,-3.86718 -3.41797,-10.89843 0,-6.97266 3.4375,-10.80079 3.4375,-3.84765 9.76563,-3.84765 6.15234,0 9.60937,3.90625 3.45703,3.90625 3.45703,10.78125 z m -22.7539,0 q 0,5.80078 2.46093,8.80859 2.48047,2.98828 7.1875,2.98828 4.7461,0 7.16797,-2.98828 2.42188,-2.98828 2.42188,-8.80859 0,-5.76172 -2.42188,-8.73047 -2.40234,-2.98828 -7.1289,-2.98828 -4.7461,0 -7.22657,3.00781 -2.46093,2.98828 -2.46093,8.71094 z"
             style="font-style:normal;font-variant:normal;font-weight:normal;font-stretch:normal;font-family:'Open Sans';-inkscape-font-specification:'Open Sans';text-align:start;text-anchor:start"
             id="path4292" /><path
             d="m 308.48047,536.48461 q -2.08985,0 -3.82813,-0.76172 -1.71875,-0.78125 -2.89062,-2.38281 l -0.23438,0 q 0.23438,1.875 0.23438,3.55469 l 0,8.80859 -3.24219,0 0,-31.01563 2.63672,0 0.44922,2.92969 0.15625,0 q 1.25,-1.75781 2.91015,-2.53906 1.66016,-0.78125 3.8086,-0.78125 4.25781,0 6.5625,2.91016 2.32422,2.91015 2.32422,8.16406 0,5.27344 -2.36328,8.20312 -2.34375,2.91016 -6.52344,2.91016 z m -0.46875,-19.43359 q -3.28125,0 -4.7461,1.8164 -1.46484,1.81641 -1.5039,5.78125 l 0,0.72266 q 0,4.51172 1.5039,6.46484 1.50391,1.9336 4.82422,1.9336 2.77344,0 4.33594,-2.2461 1.58203,-2.24609 1.58203,-6.1914 0,-4.00391 -1.58203,-6.13282 -1.5625,-2.14843 -4.41406,-2.14843 z"
             style="font-style:normal;font-variant:normal;font-weight:normal;font-stretch:normal;font-family:'Open Sans';-inkscape-font-specification:'Open Sans';text-align:start;text-anchor:start"
             id="path4294" /><path
             d="m 332.09375,536.48461 q -4.74609,0 -7.5,-2.89063 -2.73438,-2.89062 -2.73438,-8.02734 0,-5.17578 2.53907,-8.22266 2.55859,-3.04687 6.85547,-3.04687 4.02343,0 6.36718,2.65625 2.34375,2.63672 2.34375,6.97266 l 0,2.05078 -14.74609,0 q 0.0977,3.76953 1.89453,5.72265 1.81641,1.95313 5.09766,1.95313 3.45703,0 6.83593,-1.44531 l 0,2.89062 q -1.71875,0.74219 -3.26171,1.05469 -1.52344,0.33203 -3.69141,0.33203 z m -0.87891,-19.47266 q -2.57812,0 -4.12109,1.67969 -1.52344,1.67969 -1.79688,4.64844 l 11.19141,0 q 0,-3.06641 -1.36719,-4.6875 -1.36718,-1.64063 -3.90625,-1.64063 z"
             style="font-style:normal;font-variant:normal;font-weight:normal;font-stretch:normal;font-family:'Open Sans';-inkscape-font-specification:'Open Sans';text-align:start;text-anchor:start"
             id="path4296" /><path
             d="m 360.12109,536.09398 0,-13.84765 q 0,-2.61719 -1.1914,-3.90625 -1.19141,-1.28906 -3.73047,-1.28906 -3.35938,0 -4.92188,1.8164 -1.5625,1.81641 -1.5625,5.9961 l 0,11.23046 -3.24218,0 0,-21.40625 2.63671,0 0.52735,2.92969 0.15625,0 q 0.99609,-1.58203 2.79297,-2.4414 1.79687,-0.87891 4.0039,-0.87891 3.86719,0 5.82032,1.875 1.95312,1.85547 1.95312,5.95703 l 0,13.96484 -3.24219,0 z"
             style="font-style:normal;font-variant:normal;font-weight:normal;font-stretch:normal;font-family:'Open Sans';-inkscape-font-specification:'Open Sans';text-align:start;text-anchor:start"
             id="path4298" /><path
             d="m 398.83203,536.09398 -3.55469,-9.08203 -11.44531,0 -3.51562,9.08203 -3.35938,0 11.28906,-28.67187 2.79297,0 11.23047,28.67187 -3.4375,0 z m -4.58984,-12.07031 -3.32032,-8.84765 q -0.64453,-1.67969 -1.32812,-4.1211 -0.42969,1.875 -1.23047,4.1211 l -3.35937,8.84765 9.23828,0 z"
             style="font-style:normal;font-variant:normal;font-weight:normal;font-stretch:normal;font-family:'Open Sans';-inkscape-font-specification:'Open Sans';text-align:start;text-anchor:start"
             id="path4300" /><path
             d="m 419.51562,530.25414 q 0,2.98828 -2.22656,4.60938 -2.22656,1.62109 -6.25,1.62109 -4.25781,0 -6.64062,-1.34766 l 0,-3.00781 q 1.54297,0.78125 3.30078,1.23047 1.77734,0.44922 3.41797,0.44922 2.53906,0 3.90625,-0.80078 1.36718,-0.82032 1.36718,-2.48047 0,-1.25 -1.09375,-2.12891 -1.07421,-0.89844 -4.21875,-2.10937 -2.98828,-1.11328 -4.25781,-1.9336 -1.25,-0.83984 -1.875,-1.89453 -0.60547,-1.05469 -0.60547,-2.51953 0,-2.61719 2.12891,-4.12109 2.12891,-1.52344 5.83984,-1.52344 3.45703,0 6.75782,1.40625 l -1.15235,2.63672 q -3.22265,-1.32813 -5.83984,-1.32813 -2.30469,0 -3.47656,0.72266 -1.17188,0.72266 -1.17188,1.99219 0,0.85937 0.42969,1.46484 0.44922,0.60547 1.42578,1.15234 0.97656,0.54688 3.75,1.58204 3.80859,1.38671 5.13672,2.79296 1.34765,1.40625 1.34765,3.53516 z"
             style="font-style:normal;font-variant:normal;font-weight:normal;font-stretch:normal;font-family:'Open Sans';-inkscape-font-specification:'Open Sans';text-align:start;text-anchor:start"
             id="path4302" /><path
             d="m 431.68359,533.80883 q 0.85938,0 1.66016,-0.11719 0.80078,-0.13672 1.26953,-0.27344 l 0,2.48047 q -0.52734,0.25391 -1.5625,0.41016 -1.01562,0.17578 -1.83594,0.17578 -6.21093,0 -6.21093,-6.54297 l 0,-12.73437 -3.06641,0 0,-1.5625 3.06641,-1.34766 1.36718,-4.57031 1.875,0 0,4.96093 6.21094,0 0,2.51954 -6.21094,0 0,12.59765 q 0,1.9336 0.91797,2.96875 0.91797,1.03516 2.51953,1.03516 z"
             style="font-style:normal;font-variant:normal;font-weight:normal;font-stretch:normal;font-family:'Open Sans';-inkscape-font-specification:'Open Sans';text-align:start;text-anchor:start"
             id="path4304" /><path
             d="m 448.67578,514.29711 q 1.42578,0 2.55859,0.23437 l -0.44921,3.00782 q -1.32813,-0.29297 -2.34375,-0.29297 -2.59766,0 -4.45313,2.10937 -1.83594,2.10938 -1.83594,5.25391 l 0,11.48437 -3.24218,0 0,-21.40625 2.67578,0 0.37109,3.96485 0.15625,0 q 1.19141,-2.08985 2.87109,-3.22266 1.67969,-1.13281 3.69141,-1.13281 z"
             style="font-style:normal;font-variant:normal;font-weight:normal;font-stretch:normal;font-family:'Open Sans';-inkscape-font-specification:'Open Sans';text-align:start;text-anchor:start"
             id="path4306" /><path
             d="m 473.71484,525.37133 q 0,5.23437 -2.63672,8.18359 -2.63671,2.92969 -7.28515,2.92969 -2.8711,0 -5.09766,-1.34766 -2.22656,-1.34765 -3.4375,-3.86718 -1.21094,-2.51954 -1.21094,-5.89844 0,-5.23438 2.61719,-8.14453 2.61719,-2.92969 7.26563,-2.92969 4.49218,0 7.1289,2.98828 2.65625,2.98828 2.65625,8.08594 z m -16.30859,0 q 0,4.10156 1.64062,6.25 1.64063,2.14844 4.82422,2.14844 3.1836,0 4.82422,-2.12891 1.66016,-2.14844 1.66016,-6.26953 0,-4.08203 -1.66016,-6.19141 -1.64062,-2.1289 -4.86328,-2.1289 -3.18359,0 -4.80469,2.08984 -1.62109,2.08984 -1.62109,6.23047 z"
             style="font-style:normal;font-variant:normal;font-weight:normal;font-stretch:normal;font-family:'Open Sans';-inkscape-font-specification:'Open Sans';text-align:start;text-anchor:start"
             id="path4308" /><path
             d="m 494.02734,536.09398 0,-13.84765 q 0,-2.61719 -1.1914,-3.90625 -1.19141,-1.28906 -3.73047,-1.28906 -3.35938,0 -4.92188,1.8164 -1.5625,1.81641 -1.5625,5.9961 l 0,11.23046 -3.24218,0 0,-21.40625 2.63671,0 0.52735,2.92969 0.15625,0 q 0.99609,-1.58203 2.79297,-2.4414 1.79687,-0.87891 4.0039,-0.87891 3.86719,0 5.82032,1.875 1.95312,1.85547 1.95312,5.95703 l 0,13.96484 -3.24219,0 z"
             style="font-style:normal;font-variant:normal;font-weight:normal;font-stretch:normal;font-family:'Open Sans';-inkscape-font-specification:'Open Sans';text-align:start;text-anchor:start"
             id="path4310" /><path
             d="m 522.38672,525.37133 q 0,5.23437 -2.63672,8.18359 -2.63672,2.92969 -7.28516,2.92969 -2.87109,0 -5.09765,-1.34766 -2.22657,-1.34765 -3.4375,-3.86718 -1.21094,-2.51954 -1.21094,-5.89844 0,-5.23438 2.61719,-8.14453 2.61718,-2.92969 7.26562,-2.92969 4.49219,0 7.12891,2.98828 2.65625,2.98828 2.65625,8.08594 z m -16.3086,0 q 0,4.10156 1.64063,6.25 1.64062,2.14844 4.82422,2.14844 3.18359,0 4.82422,-2.12891 1.66015,-2.14844 1.66015,-6.26953 0,-4.08203 -1.66015,-6.19141 -1.64063,-2.1289 -4.86328,-2.1289 -3.1836,0 -4.80469,2.08984 -1.6211,2.08984 -1.6211,6.23047 z"
             style="font-style:normal;font-variant:normal;font-weight:normal;font-stretch:normal;font-family:'Open Sans';-inkscape-font-specification:'Open Sans';text-align:start;text-anchor:start"
             id="path4312" /><path
             d="m 555.33594,536.09398 0,-13.92578 q 0,-2.55859 -1.09375,-3.82812 -1.09375,-1.28906 -3.39844,-1.28906 -3.02734,0 -4.47266,1.73828 -1.44531,1.73828 -1.44531,5.35156 l 0,11.95312 -3.24219,0 0,-13.92578 q 0,-2.55859 -1.09375,-3.82812 -1.09375,-1.28906 -3.41797,-1.28906 -3.04687,0 -4.47265,1.83593 -1.40625,1.81641 -1.40625,5.97657 l 0,11.23046 -3.24219,0 0,-21.40625 2.63672,0 0.52734,2.92969 0.15625,0 q 0.91797,-1.5625 2.57813,-2.4414 1.67969,-0.87891 3.75,-0.87891 5.01953,0 6.5625,3.63281 l 0.15625,0 q 0.95703,-1.67969 2.77344,-2.65625 1.8164,-0.97656 4.14062,-0.97656 3.63281,0 5.42969,1.875 1.8164,1.85547 1.8164,5.95703 l 0,13.96484 -3.24218,0 z"
             style="font-style:normal;font-variant:normal;font-weight:normal;font-stretch:normal;font-family:'Open Sans';-inkscape-font-specification:'Open Sans';text-align:start;text-anchor:start"
             id="path4314" /><path
             d="m 561.83984,514.68773 3.47657,0 4.6875,12.20704 q 1.54296,4.17968 1.91406,6.03515 l 0.15625,0 q 0.2539,-0.99609 1.05469,-3.39844 0.82031,-2.42187 5.3125,-14.84375 l 3.47656,0 -9.19922,24.375 q -1.36719,3.61329 -3.20313,5.11719 -1.8164,1.52344 -4.47265,1.52344 -1.48438,0 -2.92969,-0.33203 l 0,-2.59766 q 1.07422,0.23438 2.40234,0.23438 3.33985,0 4.76563,-3.75 l 1.19141,-3.04688 -8.63282,-21.52344 z"
             style="font-style:normal;font-variant:normal;font-weight:normal;font-stretch:normal;font-family:'Open Sans';-inkscape-font-specification:'Open Sans';text-align:start;text-anchor:start"
             id="path4316" /><path
             d="m 267.83594,576.09398 0,-28.55468 3.32031,0 0,28.55468 -3.32031,0 z"
             style="font-style:normal;font-variant:normal;font-weight:normal;font-stretch:normal;font-family:'Open Sans';-inkscape-font-specification:'Open Sans';text-align:start;letter-spacing:1.20000005px;text-anchor:start"
             id="path4318" /><path
             d="m 294.36797,576.09398 0,-13.84765 q 0,-2.61719 -1.19141,-3.90625 -1.1914,-1.28906 -3.73047,-1.28906 -3.35937,0 -4.92187,1.8164 -1.5625,1.81641 -1.5625,5.9961 l 0,11.23046 -3.24219,0 0,-21.40625 2.63672,0 0.52734,2.92969 0.15625,0 q 0.9961,-1.58203 2.79297,-2.4414 1.79688,-0.87891 4.00391,-0.87891 3.86719,0 5.82031,1.875 1.95313,1.85547 1.95313,5.95703 l 0,13.96484 -3.24219,0 z"
             style="font-style:normal;font-variant:normal;font-weight:normal;font-stretch:normal;font-family:'Open Sans';-inkscape-font-specification:'Open Sans';text-align:start;letter-spacing:1.20000005px;text-anchor:start"
             id="path4320" /><path
             d="m 319.25938,570.25414 q 0,2.98828 -2.22657,4.60938 -2.22656,1.62109 -6.25,1.62109 -4.25781,0 -6.64062,-1.34766 l 0,-3.00781 q 1.54297,0.78125 3.30078,1.23047 1.77734,0.44922 3.41797,0.44922 2.53906,0 3.90625,-0.80078 1.36719,-0.82032 1.36719,-2.48047 0,-1.25 -1.09375,-2.12891 -1.07422,-0.89844 -4.21875,-2.10937 -2.98828,-1.11328 -4.25782,-1.9336 -1.25,-0.83984 -1.875,-1.89453 -0.60546,-1.05469 -0.60546,-2.51953 0,-2.61719 2.1289,-4.12109 2.12891,-1.52344 5.83985,-1.52344 3.45703,0 6.75781,1.40625 l -1.15235,2.63672 q -3.22265,-1.32813 -5.83984,-1.32813 -2.30469,0 -3.47656,0.72266 -1.17188,0.72266 -1.17188,1.99219 0,0.85937 0.42969,1.46484 0.44922,0.60547 1.42578,1.15234 0.97656,0.54688 3.75,1.58204 3.8086,1.38671 5.13672,2.79296 1.34766,1.40625 1.34766,3.53516 z"
             style="font-style:normal;font-variant:normal;font-weight:normal;font-stretch:normal;font-family:'Open Sans';-inkscape-font-specification:'Open Sans';text-align:start;letter-spacing:1.20000005px;text-anchor:start"
             id="path4322" /><path
             d="m 332.62734,573.80883 q 0.85938,0 1.66016,-0.11719 0.80078,-0.13672 1.26953,-0.27344 l 0,2.48047 q -0.52734,0.25391 -1.5625,0.41016 -1.01563,0.17578 -1.83594,0.17578 -6.21094,0 -6.21094,-6.54297 l 0,-12.73437 -3.0664,0 0,-1.5625 3.0664,-1.34766 1.36719,-4.57031 1.875,0 0,4.96093 6.21094,0 0,2.51954 -6.21094,0 0,12.59765 q 0,1.9336 0.91797,2.96875 0.91797,1.03516 2.51953,1.03516 z"
             style="font-style:normal;font-variant:normal;font-weight:normal;font-stretch:normal;font-family:'Open Sans';-inkscape-font-specification:'Open Sans';text-align:start;letter-spacing:1.20000005px;text-anchor:start"
             id="path4324" /><path
             d="m 350.81953,554.29711 q 1.42579,0 2.5586,0.23437 l -0.44922,3.00782 q -1.32813,-0.29297 -2.34375,-0.29297 -2.59766,0 -4.45313,2.10937 -1.83593,2.10938 -1.83593,5.25391 l 0,11.48437 -3.24219,0 0,-21.40625 2.67578,0 0.37109,3.96485 0.15625,0 q 1.19141,-2.08985 2.8711,-3.22266 1.67969,-1.13281 3.6914,-1.13281 z"
             style="font-style:normal;font-variant:normal;font-weight:normal;font-stretch:normal;font-family:'Open Sans';-inkscape-font-specification:'Open Sans';text-align:start;letter-spacing:1.20000005px;text-anchor:start"
             id="path4326" /><path
             d="m 361.62891,554.68773 0,13.88672 q 0,2.61719 1.1914,3.90625 1.19141,1.28907 3.73047,1.28907 3.35938,0 4.90234,-1.83594 1.5625,-1.83594 1.5625,-5.9961 l 0,-11.25 3.24219,0 0,21.40625 -2.67578,0 -0.46875,-2.87109 -0.17578,0 q -0.99609,1.58203 -2.77344,2.42188 -1.75781,0.83984 -4.02344,0.83984 -3.90625,0 -5.85937,-1.85547 -1.93359,-1.85547 -1.93359,-5.9375 l 0,-14.00391 3.28125,0 z"
             style="font-style:normal;font-variant:normal;font-weight:normal;font-stretch:normal;font-family:'Open Sans';-inkscape-font-specification:'Open Sans';text-align:start;letter-spacing:1.20000005px;text-anchor:start"
             id="path4328" /><path
             d="m 411.59843,576.09398 0,-13.92578 q 0,-2.55859 -1.09375,-3.82812 -1.09375,-1.28906 -3.39843,-1.28906 -3.02735,0 -4.47266,1.73828 -1.44531,1.73828 -1.44531,5.35156 l 0,11.95312 -3.24219,0 0,-13.92578 q 0,-2.55859 -1.09375,-3.82812 -1.09375,-1.28906 -3.41797,-1.28906 -3.04687,0 -4.47265,1.83593 -1.40625,1.81641 -1.40625,5.97657 l 0,11.23046 -3.24219,0 0,-21.40625 2.63672,0 0.52734,2.92969 0.15625,0 q 0.91797,-1.5625 2.57813,-2.4414 1.67968,-0.87891 3.75,-0.87891 5.01953,0 6.5625,3.63281 l 0.15625,0 q 0.95703,-1.67969 2.77343,-2.65625 1.81641,-0.97656 4.14063,-0.97656 3.63281,0 5.42969,1.875 1.8164,1.85547 1.8164,5.95703 l 0,13.96484 -3.24219,0 z"
             style="font-style:normal;font-variant:normal;font-weight:normal;font-stretch:normal;font-family:'Open Sans';-inkscape-font-specification:'Open Sans';text-align:start;letter-spacing:1.20000005px;text-anchor:start"
             id="path4330" /><path
             d="m 431.74374,576.48461 q -4.74609,0 -7.5,-2.89063 -2.73437,-2.89062 -2.73437,-8.02734 0,-5.17578 2.53906,-8.22266 2.5586,-3.04687 6.85547,-3.04687 4.02344,0 6.36719,2.65625 2.34375,2.63672 2.34375,6.97266 l 0,2.05078 -14.7461,0 q 0.0977,3.76953 1.89454,5.72265 1.8164,1.95313 5.09765,1.95313 3.45703,0 6.83594,-1.44531 l 0,2.89062 q -1.71875,0.74219 -3.26172,1.05469 -1.52344,0.33203 -3.69141,0.33203 z m -0.8789,-19.47266 q -2.57813,0 -4.1211,1.67969 -1.52343,1.67969 -1.79687,4.64844 l 11.19141,0 q 0,-3.06641 -1.36719,-4.6875 -1.36719,-1.64063 -3.90625,-1.64063 z"
             style="font-style:normal;font-variant:normal;font-weight:normal;font-stretch:normal;font-family:'Open Sans';-inkscape-font-specification:'Open Sans';text-align:start;letter-spacing:1.20000005px;text-anchor:start"
             id="path4332" /><path
             d="m 460.9711,576.09398 0,-13.84765 q 0,-2.61719 -1.19141,-3.90625 -1.1914,-1.28906 -3.73047,-1.28906 -3.35937,0 -4.92187,1.8164 -1.5625,1.81641 -1.5625,5.9961 l 0,11.23046 -3.24219,0 0,-21.40625 2.63672,0 0.52734,2.92969 0.15625,0 q 0.9961,-1.58203 2.79297,-2.4414 1.79688,-0.87891 4.00391,-0.87891 3.86719,0 5.82031,1.875 1.95313,1.85547 1.95313,5.95703 l 0,13.96484 -3.24219,0 z"
             style="font-style:normal;font-variant:normal;font-weight:normal;font-stretch:normal;font-family:'Open Sans';-inkscape-font-specification:'Open Sans';text-align:start;letter-spacing:1.20000005px;text-anchor:start"
             id="path4334" /><path
             d="m 478.96797,573.80883 q 0.85938,0 1.66016,-0.11719 0.80078,-0.13672 1.26953,-0.27344 l 0,2.48047 q -0.52734,0.25391 -1.5625,0.41016 -1.01563,0.17578 -1.83594,0.17578 -6.21094,0 -6.21094,-6.54297 l 0,-12.73437 -3.0664,0 0,-1.5625 3.0664,-1.34766 1.36719,-4.57031 1.875,0 0,4.96093 6.21094,0 0,2.51954 -6.21094,0 0,12.59765 q 0,1.9336 0.91797,2.96875 0.91797,1.03516 2.51953,1.03516 z"
             style="font-style:normal;font-variant:normal;font-weight:normal;font-stretch:normal;font-family:'Open Sans';-inkscape-font-specification:'Open Sans';text-align:start;letter-spacing:1.20000005px;text-anchor:start"
             id="path4336" /><path
             d="m 500.55859,576.09398 -0.64453,-3.04687 -0.15625,0 q -1.60156,2.01172 -3.20312,2.73437 -1.58203,0.70313 -3.96485,0.70313 -3.18359,0 -5,-1.64063 -1.79687,-1.64062 -1.79687,-4.66796 0,-6.48438 10.37109,-6.79688 l 3.63281,-0.11719 0,-1.32812 q 0,-2.51953 -1.09375,-3.71094 -1.07421,-1.21094 -3.45703,-1.21094 -2.67578,0 -6.05468,1.64063 l -0.9961,-2.48047 q 1.58203,-0.85938 3.45703,-1.34766 1.89453,-0.48828 3.78907,-0.48828 3.82812,0 5.66406,1.69922 1.85547,1.69922 1.85547,5.44922 l 0,14.60937 -2.40235,0 z m -7.32422,-2.28515 q 3.02735,0 4.7461,-1.66016 1.73828,-1.66015 1.73828,-4.64844 l 0,-1.93359 -3.24219,0.13672 q -3.86719,0.13672 -5.58594,1.21094 -1.69921,1.05468 -1.69921,3.30078 0,1.75781 1.05468,2.67578 1.07422,0.91797 2.98828,0.91797 z"
             style="font-style:normal;font-variant:normal;font-weight:normal;font-stretch:normal;font-family:'Open Sans';-inkscape-font-specification:'Open Sans';text-align:start;letter-spacing:1.20000005px;text-anchor:start"
             id="path4338" /><path
             d="m 517.77422,573.80883 q 0.85937,0 1.66015,-0.11719 0.80078,-0.13672 1.26953,-0.27344 l 0,2.48047 q -0.52734,0.25391 -1.5625,0.41016 -1.01562,0.17578 -1.83593,0.17578 -6.21094,0 -6.21094,-6.54297 l 0,-12.73437 -3.06641,0 0,-1.5625 3.06641,-1.34766 1.36719,-4.57031 1.875,0 0,4.96093 6.21093,0 0,2.51954 -6.21093,0 0,12.59765 q 0,1.9336 0.91796,2.96875 0.91797,1.03516 2.51954,1.03516 z"
             style="font-style:normal;font-variant:normal;font-weight:normal;font-stretch:normal;font-family:'Open Sans';-inkscape-font-specification:'Open Sans';text-align:start;letter-spacing:1.20000005px;text-anchor:start"
             id="path4340" /><path
             d="m 529.44296,576.09398 -3.24218,0 0,-21.40625 3.24218,0 0,21.40625 z m -3.51562,-27.20703 q 0,-1.11328 0.54687,-1.62109 0.54688,-0.52734 1.36719,-0.52734 0.78125,0 1.34766,0.52734 0.5664,0.52734 0.5664,1.62109 0,1.09375 -0.5664,1.64063 -0.56641,0.52734 -1.34766,0.52734 -0.82031,0 -1.36719,-0.52734 -0.54687,-0.54688 -0.54687,-1.64063 z"
             style="font-style:normal;font-variant:normal;font-weight:normal;font-stretch:normal;font-family:'Open Sans';-inkscape-font-specification:'Open Sans';text-align:start;letter-spacing:1.20000005px;text-anchor:start"
             id="path4342" /><path
             d="m 556.0336,565.37133 q 0,5.23437 -2.63672,8.18359 -2.63672,2.92969 -7.28516,2.92969 -2.87109,0 -5.09765,-1.34766 -2.22656,-1.34765 -3.4375,-3.86718 -1.21094,-2.51954 -1.21094,-5.89844 0,-5.23438 2.61719,-8.14453 2.61719,-2.92969 7.26562,-2.92969 4.49219,0 7.12891,2.98828 2.65625,2.98828 2.65625,8.08594 z m -16.30859,0 q 0,4.10156 1.64062,6.25 1.64063,2.14844 4.82422,2.14844 3.18359,0 4.82422,-2.12891 1.66015,-2.14844 1.66015,-6.26953 0,-4.08203 -1.66015,-6.19141 -1.64063,-2.1289 -4.86328,-2.1289 -3.1836,0 -4.80469,2.08984 -1.62109,2.08984 -1.62109,6.23047 z"
             style="font-style:normal;font-variant:normal;font-weight:normal;font-stretch:normal;font-family:'Open Sans';-inkscape-font-specification:'Open Sans';text-align:start;letter-spacing:1.20000005px;text-anchor:start"
             id="path4344" /><path
             d="m 577.54608,576.09398 0,-13.84765 q 0,-2.61719 -1.1914,-3.90625 -1.19141,-1.28906 -3.73047,-1.28906 -3.35938,0 -4.92188,1.8164 -1.5625,1.81641 -1.5625,5.9961 l 0,11.23046 -3.24219,0 0,-21.40625 2.63672,0 0.52735,2.92969 0.15625,0 q 0.99609,-1.58203 2.79297,-2.4414 1.79687,-0.87891 4.0039,-0.87891 3.86719,0 5.82031,1.875 1.95313,1.85547 1.95313,5.95703 l 0,13.96484 -3.24219,0 z"
             style="font-style:normal;font-variant:normal;font-weight:normal;font-stretch:normal;font-family:'Open Sans';-inkscape-font-specification:'Open Sans';text-align:start;letter-spacing:1.20000005px;text-anchor:start"
             id="path4346" /></g></g></g></g></svg>