<?xml version="1.0" encoding="UTF-8" standalone="no"?>
<!-- Created with Inkscape (http://www.inkscape.org/) -->

<svg
   xmlns:dc="http://purl.org/dc/elements/1.1/"
   xmlns:cc="http://creativecommons.org/ns#"
   xmlns:rdf="http://www.w3.org/1999/02/22-rdf-syntax-ns#"
   xmlns:svg="http://www.w3.org/2000/svg"
   xmlns="http://www.w3.org/2000/svg"
   xmlns:sodipodi="http://sodipodi.sourceforge.net/DTD/sodipodi-0.dtd"
   xmlns:inkscape="http://www.inkscape.org/namespaces/inkscape"
   id="svg2403"
   sodipodi:version="0.32"
   inkscape:version="0.91 r13725"
   width="548.09015"
   height="578.75"
   xml:space="preserve"
   sodipodi:docname="indi_logo_black-original.svg"
   inkscape:output_extension="org.inkscape.output.svg.inkscape"
   version="1.1"><metadata
     id="metadata2408"><rdf:RDF><cc:Work
         rdf:about=""><dc:format>image/svg+xml</dc:format><dc:type
           rdf:resource="http://purl.org/dc/dcmitype/StillImage" /><dc:title></dc:title></cc:Work></rdf:RDF></metadata><defs
     id="defs2406"><inkscape:perspective
       sodipodi:type="inkscape:persp3d"
       inkscape:vp_x="0 : 526.18109 : 1"
       inkscape:vp_y="0 : 1000 : 0"
       inkscape:vp_z="744.09448 : 526.18109 : 1"
       inkscape:persp3d-origin="372.04724 : 350.78739 : 1"
       id="perspective2410" /><linearGradient
       x1="0"
       y1="0"
       x2="1"
       y2="0"
       gradientUnits="userSpaceOnUse"
       gradientTransform="matrix(-2e-5,-431.99951,431.99951,-2e-5,432,-144)"
       spreadMethod="pad"
       id="linearGradient2426"><stop
         style="stop-opacity:1;stop-color:#3753a5"
         offset="0"
         id="stop2428" /><stop
         style="stop-opacity:1;stop-color:#1e2942"
         offset="1"
         id="stop2430" /></linearGradient></defs><sodipodi:namedview
     inkscape:window-height="1322"
     inkscape:window-width="2560"
     inkscape:pageshadow="2"
     inkscape:pageopacity="0.0"
     guidetolerance="10.0"
     gridtolerance="10.0"
     objecttolerance="10.0"
     borderopacity="1.0"
     bordercolor="#666666"
     pagecolor="#ffffff"
     id="base"
     showgrid="false"
     inkscape:zoom="0.72483801"
     inkscape:cx="-51.544904"
     inkscape:cy="330.76356"
     inkscape:window-x="0"
     inkscape:window-y="44"
     inkscape:current-layer="g2434"
     inkscape:snap-global="false"
     inkscape:window-maximized="1"
     fit-margin-top="0"
     fit-margin-left="0"
     fit-margin-right="0"
     fit-margin-bottom="0" /><g
     id="g2412"
     inkscape:groupmode="layer"
     inkscape:label="dass - logo2"
     transform="matrix(1.25,0,0,-1.25,-265.95492,722.5)"><g
       id="g2414"
       transform="scale(1,-1)"
       inkscape:export-filename="/home/jasem/Pictures/dass_logo_large.png"
       inkscape:export-xdpi="199.98166"
       inkscape:export-ydpi="199.98166"><g
         id="g2416"><g
           id="g2422"><g
             id="g2424"><path
               d="m 216,-576 c 0,0 432,0 432,0 0,0 -216,432 -216,432 0,0 -216,-432 -216,-432 z"
               style="fill:url(#linearGradient2426);stroke:none"
               id="path2432"
               inkscape:connector-curvature="0" /></g></g></g></g><g
       id="g2434"
       transform="scale(1,-1)"><path
         d="m 216,-576 c 0,0 432,0 432,0 0,0 -216,432 -216,432 0,0 -216,-432 -216,-432 z"
         style="fill:none;stroke:#ffffff;stroke-width:4;stroke-linecap:butt;stroke-linejoin:miter;stroke-miterlimit:4;stroke-dasharray:none;stroke-opacity:1"
         id="path2436"
         inkscape:export-filename="/home/jasem/Pictures/dass_logo_large.png"
         inkscape:export-xdpi="199.98166"
         inkscape:export-ydpi="199.98166"
         inkscape:connector-curvature="0" /><path
         d="m 648,-117 c 0,0 -432,0 -432,0 0,0 0,-99 0,-99 0,0 432,0 432,0 0,0 0,99 0,99 z"
         style="fill:#eb9e20;fill-opacity:1;fill-rule:nonzero;stroke:none"
         id="path2438"
         inkscape:export-filename="/home/jasem/Pictures/dass_logo_large.png"
         inkscape:export-xdpi="199.98166"
         inkscape:export-ydpi="199.98166"
         inkscape:connector-curvature="0"
         inkscape:transform-center-x="-20.560191"
         inkscape:transform-center-y="-12.514899" /><path
         d="m 648,-117 c 0,0 -432,0 -432,0 0,0 0,-99 0,-99 0,0 432,0 432,0 0,0 0,99 0,99 z"
         style="fill:none;stroke:#ffffff;stroke-width:4;stroke-linecap:butt;stroke-linejoin:miter;stroke-miterlimit:4;stroke-dasharray:none;stroke-opacity:1"
         id="path2440"
         inkscape:export-filename="/home/jasem/Pictures/dass_logo_large.png"
         inkscape:export-xdpi="199.98166"
         inkscape:export-ydpi="199.98166"
         inkscape:connector-curvature="0" /><path
         d="m 486,-454.5 c 0,32.30859 -26.19141,58.5 -58.5,58.5 -32.30859,0 -58.5,-26.19141 -58.5,-58.5 0,-32.30859 26.19141,-58.5 58.5,-58.5 32.30859,0 58.5,26.19141 58.5,58.5 z"
         style="fill:#ffffff;fill-opacity:1;fill-rule:nonzero;stroke:none"
         id="path2442"
         inkscape:export-filename="/home/jasem/Pictures/dass_logo_large.png"
         inkscape:export-xdpi="199.98166"
         inkscape:export-ydpi="199.98166"
         inkscape:connector-curvature="0" /><path
         d="m 306,-535.5 c 0,2.48535 -2.01465,4.5 -4.5,4.5 -2.48535,0 -4.5,-2.01465 -4.5,-4.5 0,-2.48535 2.01465,-4.5 4.5,-4.5 2.48535,0 4.5,2.01465 4.5,4.5 z"
         style="fill:#ffffff;fill-opacity:1;fill-rule:nonzero;stroke:none"
         id="path2444"
         inkscape:export-filename="/home/jasem/Pictures/dass_logo_large.png"
         inkscape:export-xdpi="199.98166"
         inkscape:export-ydpi="199.98166"
         inkscape:connector-curvature="0" /><path
         d="m 394.03125,-540 c 0,3.8833 -3.14795,7.03125 -7.03125,7.03125 -3.8833,0 -7.03125,-3.14795 -7.03125,-7.03125 0,-3.8833 3.14795,-7.03125 7.03125,-7.03125 3.8833,0 7.03125,3.14795 7.03125,7.03125 z"
         style="fill:#ffffff;fill-opacity:1;fill-rule:nonzero;stroke:none"
         id="path2446"
         inkscape:export-filename="/home/jasem/Pictures/dass_logo_large.png"
         inkscape:export-xdpi="199.98166"
         inkscape:export-ydpi="199.98166"
         inkscape:connector-curvature="0" /><path
         d="m 324,-454.5 c 0,2.48535 -2.01465,4.5 -4.5,4.5 -2.48535,0 -4.5,-2.01465 -4.5,-4.5 0,-2.48535 2.01465,-4.5 4.5,-4.5 2.48535,0 4.5,2.01465 4.5,4.5 z"
         style="fill:#ffffff;fill-opacity:1;fill-rule:nonzero;stroke:none"
         id="path2448"
         inkscape:export-filename="/home/jasem/Pictures/dass_logo_large.png"
         inkscape:export-xdpi="199.98166"
         inkscape:export-ydpi="199.98166"
         inkscape:connector-curvature="0" /><path
         d="m 469.96875,-378 c 0,1.0874 -0.88184,1.96875 -1.96875,1.96875 -1.08691,0 -1.96875,-0.88135 -1.96875,-1.96875 0,-1.0874 0.88184,-1.96875 1.96875,-1.96875 1.08691,0 1.96875,0.88135 1.96875,1.96875 z"
         style="fill:#ffffff;fill-opacity:1;fill-rule:nonzero;stroke:none"
         id="path2450"
         inkscape:export-filename="/home/jasem/Pictures/dass_logo_large.png"
         inkscape:export-xdpi="199.98166"
         inkscape:export-ydpi="199.98166"
         inkscape:connector-curvature="0" /><path
         d="m 531,-441 c 0,4.9707 -4.0293,9 -9,9 -4.9707,0 -9,-4.0293 -9,-9 0,-4.9707 4.0293,-9 9,-9 4.9707,0 9,4.0293 9,9 z"
         style="fill:#ffffff;fill-opacity:1;fill-rule:nonzero;stroke:none"
         id="path2452"
         inkscape:export-filename="/home/jasem/Pictures/dass_logo_large.png"
         inkscape:export-xdpi="199.98166"
         inkscape:export-ydpi="199.98166"
         inkscape:connector-curvature="0" /><path
         d="m 540,-526.5 c 0,2.48535 -2.01465,4.5 -4.5,4.5 -2.48535,0 -4.5,-2.01465 -4.5,-4.5 0,-2.48535 2.01465,-4.5 4.5,-4.5 2.48535,0 4.5,2.01465 4.5,4.5 z"
         style="fill:#ffffff;fill-opacity:1;fill-rule:nonzero;stroke:none"
         id="path2454"
         inkscape:export-filename="/home/jasem/Pictures/dass_logo_large.png"
         inkscape:export-xdpi="199.98166"
         inkscape:export-ydpi="199.98166"
         inkscape:connector-curvature="0" /><path
         d="m 394.03125,-324 c 0,3.8833 -3.14795,7.03125 -7.03125,7.03125 -3.8833,0 -7.03125,-3.14795 -7.03125,-7.03125 0,-3.8833 3.14795,-7.03125 7.03125,-7.03125 3.8833,0 7.03125,3.14795 7.03125,7.03125 z"
         style="fill:#ffffff;fill-opacity:1;fill-rule:nonzero;stroke:none"
         id="path2456"
         inkscape:export-filename="/home/jasem/Pictures/dass_logo_large.png"
         inkscape:export-xdpi="199.98166"
         inkscape:export-ydpi="199.98166"
         inkscape:connector-curvature="0" /><path
         d="m 509,-431 c 7,-10 21,-15 32,-20"
         style="fill:#ffffff;fill-opacity:1;fill-rule:nonzero;stroke:none"
         id="path2458"
         inkscape:export-filename="/home/jasem/Pictures/dass_logo_large.png"
         inkscape:export-xdpi="199.98166"
         inkscape:export-ydpi="199.98166"
         inkscape:connector-curvature="0" /><path
         d="m 509.87695,-430.38623 c 8.0459,-10.37451 20.52539,-13.6792 31.45801,-19.90772 0.88867,-0.50634 0.27442,-1.73388 -0.66992,-1.4121 -11.6875,3.98535 -25.18457,9.67871 -32.54199,20.09228 -0.80078,1.13379 0.91211,2.31299 1.7539,1.22754 0,0 0,0 0,0 z"
         style="fill:#ffffff;fill-opacity:1;fill-rule:nonzero;stroke:none"
         id="path2460"
         inkscape:export-filename="/home/jasem/Pictures/dass_logo_large.png"
         inkscape:export-xdpi="199.98166"
         inkscape:export-ydpi="199.98166"
         inkscape:connector-curvature="0" /><path
         d="m 305,-525 c -2.92578,-6.46436 -3.9375,-13.72461 -10,-18"
         style="fill:#ffffff;fill-opacity:1;fill-rule:nonzero;stroke:none"
         id="path2462"
         inkscape:export-filename="/home/jasem/Pictures/dass_logo_large.png"
         inkscape:export-xdpi="199.98166"
         inkscape:export-ydpi="199.98166"
         inkscape:connector-curvature="0" /><path
         d="m 305.93896,-525.4458 c -2.62402,-6.15772 -3.97607,-14.80859 -10.45068,-18.25195 -0.78662,-0.41846 -1.86035,0.48632 -1.13769,1.24853 2.39257,2.5249 4.34863,4.91309 5.8081,8.11182 1.45801,3.19482 2.47022,6.57519 3.90235,9.7832 0.54736,1.22607 2.40185,0.33838 1.87792,-0.8916 0,0 0,0 0,0 z"
         style="fill:#ffffff;fill-opacity:1;fill-rule:nonzero;stroke:none"
         id="path2464"
         inkscape:export-filename="/home/jasem/Pictures/dass_logo_large.png"
         inkscape:export-xdpi="199.98166"
         inkscape:export-ydpi="199.98166"
         inkscape:connector-curvature="0" /><path
         d="m 290,-529 c 4,-5 12,-9 19,-11"
         style="fill:#ffffff;fill-opacity:1;fill-rule:nonzero;stroke:none"
         id="path2466"
         inkscape:export-filename="/home/jasem/Pictures/dass_logo_large.png"
         inkscape:export-xdpi="199.98166"
         inkscape:export-ydpi="199.98166"
         inkscape:connector-curvature="0" /><path
         d="m 290.53564,-528.36816 c 5.67334,-5.0459 11.82227,-8.09961 18.89014,-10.73536 1.05371,-0.39306 0.48438,-2.11914 -0.59814,-1.87353 -6.91455,1.56934 -15.55078,5.271 -19.50586,11.50195 -0.49219,0.7749 0.48779,1.75244 1.21386,1.10694 0,0 0,0 0,0 z"
         style="fill:#ffffff;fill-opacity:1;fill-rule:nonzero;stroke:none"
         id="path2468"
         inkscape:export-filename="/home/jasem/Pictures/dass_logo_large.png"
         inkscape:export-xdpi="199.98166"
         inkscape:export-ydpi="199.98166"
         inkscape:connector-curvature="0" /><path
         d="m 368.17871,-276.55957 c 0.47608,0.8623 2.34082,-0.58398 3.53565,-1.08887 2.01367,-0.84961 4.00878,-1.73437 6.03759,-2.55273 4.56543,-1.84082 9.21143,-3.48242 13.85352,-5.11817 9.96582,-3.51269 20.42285,-5.26855 30.89453,-6.54882 24.32129,-2.97364 54.11328,-2.97168 73.52344,14.26367 1.44238,1.28027 3.6582,-1.15332 2.27539,-2.49707 -20.23438,-19.6753 -54.48145,-18.27051 -80.34278,-14.72852 -11.66113,1.59766 -22.58935,4.375 -33.5874,8.46387 -2.33447,0.86719 -21.5249,6.65039 -18.36377,11.20996 0.84424,1.21777 2.88379,-0.11719 2.17383,-1.40332 0,0 0,0 0,0 z"
         style="fill:#ffffff;fill-opacity:1;fill-rule:nonzero;stroke:none"
         id="path2470"
         inkscape:export-filename="/home/jasem/Pictures/dass_logo_large.png"
         inkscape:export-xdpi="199.98166"
         inkscape:export-ydpi="199.98166"
         inkscape:connector-curvature="0" /><path
         d="m 381.45508,-266.46387 c 6.17969,-5.29297 14.75293,-7.80371 22.48144,-9.75879 10.01563,-2.53515 20.43067,-3.79394 30.7461,-4.09863 8.80371,-0.25976 18.07519,0.14844 26.48828,2.96484 3.70508,1.24024 7.3789,3.45899 9.83398,6.51856 3.33203,4.14941 -2.39258,7.9834 -5.43847,9.82226 -6.80469,4.10743 -14.56739,6.64942 -21.84766,9.77149 -6.88379,2.95117 -13.48926,6.8916 -19.58008,11.23242 -4.03222,2.87305 -10.4082,7.38281 -10.68066,12.91992 -0.30078,6.1084 9.40429,6.90625 13.45117,7.0625 0.99902,0 1.99805,0.008 2.99609,0.0254 1.27442,0.0156 1.48828,-1.91211 0.18946,-1.99218 -4.04981,-0.24805 -10.14746,-0.27051 -13.34961,-3.20508 -2.51856,-2.30664 1.10156,-6.15332 2.68554,-7.81934 5.55372,-5.83984 13.01758,-10.15039 20.11231,-13.81933 6.61523,-3.4209 13.71191,-5.74512 20.55371,-8.65235 5.27832,-2.24316 13.47559,-5.62695 14.47949,-12.11914 0.94922,-6.1416 -7.85351,-10.55371 -12.47656,-12.25293 -7.79492,-2.86426 -16.57617,-3.18847 -24.7832,-3.14844 -9.8252,0.0488 -19.6836,1.18067 -29.28516,3.24317 -7.73437,1.66211 -16.15625,3.90918 -22.81055,8.35937 -1.70068,1.13672 -3.28076,2.37305 -4.67578,3.87403 -0.59961,0.64453 0.20215,1.67871 0.91016,1.07226 0,0 0,0 0,0 z"
         style="fill:#ffffff;fill-opacity:1;fill-rule:nonzero;stroke:none"
         id="path2472"
         inkscape:export-filename="/home/jasem/Pictures/dass_logo_large.png"
         inkscape:export-xdpi="199.98166"
         inkscape:export-ydpi="199.98166"
         inkscape:connector-curvature="0" /><path
         d="m 397.27148,-261.42871 c 4.6084,-2.21875 9.28418,-5.43262 14.62891,-4.04004 4.5752,1.19238 6.02149,3.83008 3.40723,7.76367 -3.58496,5.39356 -9.44434,8.80957 -13.17774,14.0957 -0.6914,0.97852 0.65039,2.23633 1.55762,1.41993 3.61328,-3.25391 7.34375,-6.33008 10.73926,-9.83203 2.29394,-2.36524 5.90137,-6.18457 5.3457,-9.8584 -0.61621,-4.07325 -4.8291,-5.47168 -8.33496,-6.30274 -5.33203,-1.26465 -11.05127,2.35157 -14.84668,5.7002 -0.53467,0.47168 0.0244,1.37012 0.68066,1.05371 0,0 0,0 0,0 z"
         style="fill:#ffffff;fill-opacity:1;fill-rule:nonzero;stroke:none"
         id="path2474"
         inkscape:export-filename="/home/jasem/Pictures/dass_logo_large.png"
         inkscape:export-xdpi="199.98166"
         inkscape:export-ydpi="199.98166"
         inkscape:connector-curvature="0" /><path
         d="m 464.84375,-246.88477 c -6.93945,0.56153 -13.89746,5.76856 -16.19141,12.45313 -2.96191,8.63086 7.66016,10.05664 13.56641,8.66992 1.30859,-0.30664 1.3877,-2.50976 -0.0996,-2.49121 -4.73144,0.0605 -12.90527,0.34375 -9.97656,-6.58398 2.10156,-4.97168 7.97265,-8.88282 13.01367,-10.27832 1.11816,-0.30957 0.84668,-1.86329 -0.3125,-1.76954 0,0 0,0 0,0 z"
         style="fill:#ffffff;fill-opacity:1;fill-rule:nonzero;stroke:none"
         id="path2476"
         inkscape:export-filename="/home/jasem/Pictures/dass_logo_large.png"
         inkscape:export-xdpi="199.98166"
         inkscape:export-ydpi="199.98166"
         inkscape:connector-curvature="0" /><path
         d="m 307.16211,-247.5498 c -17.82568,9.42675 -44.25391,3.30566 -51.44141,-16.72754 -5.57959,-15.55176 0.77637,-34.19239 6.74805,-48.64258 14.92773,-36.12451 41.12256,-66.0874 70.0293,-91.81738 39.39941,-35.06983 85.85937,-63.34229 135.54883,-81.15137 24.02246,-8.60938 49.19531,-14.39453 74.70117,-15.92871 22.71093,-1.36621 48.01367,2.33789 64.39062,19.67334 14.28125,15.11621 13.14356,36.4414 4.71875,54.14355 -9,18.90869 -24.83789,34.51807 -38.94922,49.64111 -1.06152,1.13819 0.45996,3.02588 1.59766,1.88282 16.89648,-16.98877 35.04199,-33.97266 43.83008,-56.84375 7.90625,-20.57715 3.00097,-42.64356 -14.08594,-56.74903 -16.79199,-13.86181 -39.76953,-16.59179 -60.72363,-15.62011 -24.79981,1.1499 -49.24121,6.85595 -72.69824,14.77588 -49.44434,16.69433 -95.47022,44.55371 -135.07764,78.33984 -29.52295,25.1831 -55.76416,54.58935 -72.64209,89.77295 -8.31543,17.33398 -16.70069,39.40137 -10.81738,58.73144 6.87548,22.58985 36.65478,29.66602 55.82421,18.52539 1.21875,-0.70898 0.32715,-2.68261 -0.95312,-2.00585 0,0 0,0 0,0 z"
         style="fill:#eb9e20;fill-opacity:1;fill-rule:nonzero;stroke:none"
         id="path2478"
         inkscape:export-filename="/home/jasem/Pictures/dass_logo_large.png"
         inkscape:export-xdpi="199.98166"
         inkscape:export-ydpi="199.98166"
         inkscape:connector-curvature="0" /><g
         id="g2480"
         transform="scale(1,-1)"><text
           transform="matrix(1,0,0,-0.8,254.31836,165.93945)"
           id="text2482"><tspan
             style="font-variant:normal;font-weight:normal;font-size:75px;font-family:CooperBlack;-inkscape-font-specification:CooperBlack;writing-mode:lr-tb;fill:none;stroke:#ffffff;stroke-width:4;stroke-linecap:butt;stroke-linejoin:miter;stroke-miterlimit:4;stroke-dasharray:none;stroke-opacity:1"
             sodipodi:role="line"
             id="tspan2486"
             x="0"
             y="0" /></text>
<text
           transform="matrix(1,0,0,-1,245.36523,126)"
           id="text2488"><tspan
             style="font-variant:normal;font-weight:normal;font-size:14px;font-family:CooperBlack;-inkscape-font-specification:CooperBlack;writing-mode:lr-tb;fill:#3653a3;fill-opacity:1;fill-rule:nonzero;stroke:none"
             sodipodi:role="line"
             id="tspan2490"
             x="0"
             y="0" /></text>
<text
           transform="matrix(1,0,0,-1,254.85107,144)"
           id="text2492"><tspan
             style="font-variant:normal;font-weight:normal;font-size:18px;font-family:ae_Khalid;-inkscape-font-specification:ae_Khalid;writing-mode:lr-tb;fill:#3653a3;fill-opacity:1;fill-rule:nonzero;stroke:none"
             x="0"
             sodipodi:role="line"
             id="tspan2494"
             y="0" /></text>
</g><flowRoot
         xml:space="preserve"
         id="flowRoot2498"
         style="font-style:normal;font-weight:normal;font-size:40px;font-family:'Bitstream Vera Sans';fill:#000000;fill-opacity:1;stroke:none;stroke-width:1px;stroke-linecap:butt;stroke-linejoin:miter;stroke-opacity:1"><flowRegion
           id="flowRegion2500"><rect
             id="rect2502"
             width="428.30884"
             height="79.044121"
             x="314.33823"
             y="505.51471" /></flowRegion><flowPara
           id="flowPara2504" /></flowRoot><text
         xml:space="preserve"
         style="font-style:normal;font-weight:normal;font-size:80.76836395px;font-family:'Bitstream Vera Sans';fill:#000000;fill-opacity:1;stroke:none;stroke-width:1px;stroke-linecap:butt;stroke-linejoin:miter;stroke-opacity:1"
         x="237.54282"
         y="-123.2476"
         id="text2506"
         inkscape:export-filename="/home/jasem/Pictures/dass_logo_large.png"
         inkscape:export-xdpi="199.98166"
         inkscape:export-ydpi="199.98166"
         transform="scale(0.94293066,1.0605234)"><tspan
           sodipodi:role="line"
           x="237.54282"
           y="-123.2476"
           id="tspan2510"
           style="font-style:normal;font-variant:normal;font-weight:normal;font-stretch:normal;font-size:100.10858917px;font-family:Arial;-inkscape-font-specification:Arial">INDI</tspan></text>
<text
         xml:space="preserve"
         style="font-style:normal;font-variant:normal;font-weight:normal;font-stretch:normal;font-size:51.33224106px;line-height:100%;font-family:cmmi10;-inkscape-font-specification:cmmi10;fill:#000000;fill-opacity:1;stroke:none;stroke-width:1px;stroke-linecap:butt;stroke-linejoin:miter;stroke-opacity:1"
         x="460.54184"
         y="-158.44958"
         id="text2514"
         inkscape:export-filename="/home/jasem/Pictures/dass_logo_large.png"
         inkscape:export-xdpi="199.98166"
         inkscape:export-ydpi="199.98166"
         transform="scale(0.90157025,1.1091759)"
         sodipodi:linespacing="100%"><tspan
           sodipodi:role="line"
           id="tspan3545"
           style="font-style:normal;font-variant:normal;font-weight:normal;font-stretch:normal;font-size:33px;line-height:100%;font-family:Arial;-inkscape-font-specification:Arial;text-align:start;writing-mode:lr-tb;text-anchor:start"
           x="460.54184"
           y="-158.44958">Open Astronomy</tspan></text>
<text
         xml:space="preserve"
         style="font-style:normal;font-weight:normal;font-size:51.55685806px;font-family:'Bitstream Vera Sans';fill:#000000;fill-opacity:1;stroke:none;stroke-width:1px;stroke-linecap:butt;stroke-linejoin:miter;stroke-opacity:1"
         x="459.05145"
         y="-124.17081"
         id="text2514-4"
         inkscape:export-filename="/home/jasem/Pictures/dass_logo_large.png"
         inkscape:export-xdpi="199.98166"
         inkscape:export-ydpi="199.98166"
         transform="scale(0.90551518,1.1043437)"><tspan
           sodipodi:role="line"
           id="tspan2516-1"
           x="459.05145"
           y="-124.17081"
           style="font-style:normal;font-variant:normal;font-weight:normal;font-stretch:normal;font-size:35.36388016px;font-family:Arial;-inkscape-font-specification:Arial">Instrumentation</tspan><tspan
           sodipodi:role="line"
           x="459.05145"
           y="-79.965958"
           style="font-style:normal;font-variant:normal;font-weight:normal;font-stretch:normal;font-size:39.23664093px;font-family:Arial;-inkscape-font-specification:Arial"
           id="tspan3522-0" /></text>
</g></g></svg>