<?xml version="1.0" encoding="UTF-8" standalone="no"?>
<svg
   xmlns:dc="http://purl.org/dc/elements/1.1/"
   xmlns:cc="http://creativecommons.org/ns#"
   xmlns:rdf="http://www.w3.org/1999/02/22-rdf-syntax-ns#"
   xmlns:svg="http://www.w3.org/2000/svg"
   xmlns="http://www.w3.org/2000/svg"
   version="1.1"
   xml:space="preserve"
   height="600"
   width="600"
   id="svg2403"><metadata
     id="metadata2408"><rdf:RDF><cc:Work
         rdf:about=""><dc:format>image/svg+xml</dc:format><dc:type
           rdf:resource="http://purl.org/dc/dcmitype/StillImage" /><dc:title></dc:title></cc:Work></rdf:RDF></metadata><defs
     id="defs2406"><linearGradient
       id="linearGradient2426"
       spreadMethod="pad"
       gradientTransform="matrix(-2e-5,-431.99951,431.99951,-2e-5,432,-144)"
       gradientUnits="userSpaceOnUse"
       y2="0"
       x2="1"
       y1="0"
       x1="0"><stop
         id="stop2428"
         offset="0"
         style="stop-opacity:1;stop-color:#3753a5" /><stop
         id="stop2430"
         offset="1"
         style="stop-opacity:1;stop-color:#1e2942" /></linearGradient></defs><g
     transform="matrix(1.25,0,0,-1.25,0,600)"
     id="g2412"><g
       transform="matrix(1.0961102,0,0,1.0961102,-233.51961,-153.36202)"
       id="g4207"><g
         style="stroke:#ffffff;stroke-width:3.65393448;stroke-miterlimit:4;stroke-dasharray:none"
         id="g2414"
         transform="scale(1,-1)"><g
           style="stroke:#ffffff;stroke-width:3.65393448;stroke-miterlimit:4;stroke-dasharray:none"
           id="g2416"><g
             style="stroke:#ffffff;stroke-width:3.65393448;stroke-miterlimit:4;stroke-dasharray:none"
             id="g2422"><g
               style="stroke:#ffffff;stroke-width:3.65393448;stroke-miterlimit:4;stroke-dasharray:none"
               id="g2424"><path
                 d="m 216,-576 c 0,0 432,0 432,0 0,0 -216,432 -216,432 0,0 -216,-432 -216,-432 z"
                 style="fill:url(#linearGradient2426);stroke:#ffffff;stroke-width:3.65393448;stroke-miterlimit:4;stroke-dasharray:none"
                 id="path2432" /></g></g></g></g><g
         id="g4325"><g
           style="stroke:#ffffff;stroke-width:7.29853622;stroke-miterlimit:4;stroke-dasharray:none"
           transform="translate(0,2.9194144)"
           id="g4309"><path
             id="path2442"
             style="fill:#ffffff;fill-opacity:1;fill-rule:nonzero;stroke:#ffffff;stroke-width:7.29853622;stroke-miterlimit:4;stroke-dasharray:none"
             d="m 486,454.5 c 0,-32.30859 -26.19141,-58.5 -58.5,-58.5 -32.30859,0 -58.5,26.19141 -58.5,58.5 0,32.30859 26.19141,58.5 58.5,58.5 32.30859,0 58.5,-26.19141 58.5,-58.5 z" /><path
             id="path2444"
             style="fill:#ffffff;fill-opacity:1;fill-rule:nonzero;stroke:#ffffff;stroke-width:7.29853622;stroke-miterlimit:4;stroke-dasharray:none"
             d="m 306,535.5 c 0,-2.48535 -2.01465,-4.5 -4.5,-4.5 -2.48535,0 -4.5,2.01465 -4.5,4.5 0,2.48535 2.01465,4.5 4.5,4.5 2.48535,0 4.5,-2.01465 4.5,-4.5 z" /><path
             id="path2446"
             style="fill:#ffffff;fill-opacity:1;fill-rule:nonzero;stroke:#ffffff;stroke-width:7.29853622;stroke-miterlimit:4;stroke-dasharray:none"
             d="m 394.03125,540 c 0,-3.8833 -3.14795,-7.03125 -7.03125,-7.03125 -3.8833,0 -7.03125,3.14795 -7.03125,7.03125 0,3.8833 3.14795,7.03125 7.03125,7.03125 3.8833,0 7.03125,-3.14795 7.03125,-7.03125 z" /><path
             id="path2448"
             style="fill:#ffffff;fill-opacity:1;fill-rule:nonzero;stroke:#ffffff;stroke-width:7.29853622;stroke-miterlimit:4;stroke-dasharray:none"
             d="m 324,454.5 c 0,-2.48535 -2.01465,-4.5 -4.5,-4.5 -2.48535,0 -4.5,2.01465 -4.5,4.5 0,2.48535 2.01465,4.5 4.5,4.5 2.48535,0 4.5,-2.01465 4.5,-4.5 z" /><path
             id="path2450"
             style="fill:#ffffff;fill-opacity:1;fill-rule:nonzero;stroke:#ffffff;stroke-width:7.29853622;stroke-miterlimit:4;stroke-dasharray:none"
             d="m 469.96875,378 c 0,-1.0874 -0.88184,-1.96875 -1.96875,-1.96875 -1.08691,0 -1.96875,0.88135 -1.96875,1.96875 0,1.0874 0.88184,1.96875 1.96875,1.96875 1.08691,0 1.96875,-0.88135 1.96875,-1.96875 z" /><path
             id="path2452"
             style="fill:#ffffff;fill-opacity:1;fill-rule:nonzero;stroke:#ffffff;stroke-width:7.29853622;stroke-miterlimit:4;stroke-dasharray:none"
             d="m 531,441 c 0,-4.9707 -4.0293,-9 -9,-9 -4.9707,0 -9,4.0293 -9,9 0,4.9707 4.0293,9 9,9 4.9707,0 9,-4.0293 9,-9 z" /><path
             id="path2454"
             style="fill:#ffffff;fill-opacity:1;fill-rule:nonzero;stroke:#ffffff;stroke-width:7.29853622;stroke-miterlimit:4;stroke-dasharray:none"
             d="m 540,526.5 c 0,-2.48535 -2.01465,-4.5 -4.5,-4.5 -2.48535,0 -4.5,2.01465 -4.5,4.5 0,2.48535 2.01465,4.5 4.5,4.5 2.48535,0 4.5,-2.01465 4.5,-4.5 z" /><path
             id="path2456"
             style="fill:#ffffff;fill-opacity:1;fill-rule:nonzero;stroke:#ffffff;stroke-width:7.29853622;stroke-miterlimit:4;stroke-dasharray:none"
             d="m 394.03125,324 c 0,-3.8833 -3.14795,-7.03125 -7.03125,-7.03125 -3.8833,0 -7.03125,3.14795 -7.03125,7.03125 0,3.8833 3.14795,7.03125 7.03125,7.03125 3.8833,0 7.03125,-3.14795 7.03125,-7.03125 z" /><path
             id="path2458"
             style="fill:#ffffff;fill-opacity:1;fill-rule:nonzero;stroke:#ffffff;stroke-width:7.29853622;stroke-miterlimit:4;stroke-dasharray:none"
             d="m 509,431 c 7,10 21,15 32,20" /><path
             id="path2460"
             style="fill:#ffffff;fill-opacity:1;fill-rule:nonzero;stroke:#ffffff;stroke-width:7.29853622;stroke-miterlimit:4;stroke-dasharray:none"
             d="m 509.87695,430.38623 c 8.0459,10.37451 20.52539,13.6792 31.45801,19.90772 0.88867,0.50634 0.27442,1.73388 -0.66992,1.4121 -11.6875,-3.98535 -25.18457,-9.67871 -32.54199,-20.09228 -0.80078,-1.13379 0.91211,-2.31299 1.7539,-1.22754 0,0 0,0 0,0 z" /><path
             id="path2462"
             style="fill:#ffffff;fill-opacity:1;fill-rule:nonzero;stroke:#ffffff;stroke-width:7.29853622;stroke-miterlimit:4;stroke-dasharray:none"
             d="m 305,525 c -2.92578,6.46436 -3.9375,13.72461 -10,18" /><path
             id="path2464"
             style="fill:#ffffff;fill-opacity:1;fill-rule:nonzero;stroke:#ffffff;stroke-width:7.29853622;stroke-miterlimit:4;stroke-dasharray:none"
             d="m 305.93896,525.4458 c -2.62402,6.15772 -3.97607,14.80859 -10.45068,18.25195 -0.78662,0.41846 -1.86035,-0.48632 -1.13769,-1.24853 2.39257,-2.5249 4.34863,-4.91309 5.8081,-8.11182 1.45801,-3.19482 2.47022,-6.57519 3.90235,-9.7832 0.54736,-1.22607 2.40185,-0.33838 1.87792,0.8916 0,0 0,0 0,0 z" /><path
             id="path2466"
             style="fill:#ffffff;fill-opacity:1;fill-rule:nonzero;stroke:#ffffff;stroke-width:7.29853622;stroke-miterlimit:4;stroke-dasharray:none"
             d="m 290,529 c 4,5 12,9 19,11" /><path
             id="path2468"
             style="fill:#ffffff;fill-opacity:1;fill-rule:nonzero;stroke:#ffffff;stroke-width:7.29853622;stroke-miterlimit:4;stroke-dasharray:none"
             d="m 290.53564,528.36816 c 5.67334,5.0459 11.82227,8.09961 18.89014,10.73536 1.05371,0.39306 0.48438,2.11914 -0.59814,1.87353 -6.91455,-1.56934 -15.55078,-5.271 -19.50586,-11.50195 -0.49219,-0.7749 0.48779,-1.75244 1.21386,-1.10694 0,0 0,0 0,0 z" /></g><path
           d="m 307.16211,250.46922 c -17.82568,-9.42675 -44.25391,-3.30566 -51.44141,16.72754 -5.57959,15.55176 0.77637,34.19239 6.74805,48.64258 14.92773,36.12451 41.12256,66.0874 70.0293,91.81738 39.39941,35.06983 85.85937,63.34229 135.54883,81.15137 24.02246,8.60938 49.19531,14.39453 74.70117,15.92871 22.71093,1.36621 48.01367,-2.33789 64.39062,-19.67334 14.28125,-15.11621 13.14356,-36.4414 4.71875,-54.14355 -9,-18.90869 -24.83789,-34.51807 -38.94922,-49.64111 -1.06152,-1.13819 0.45996,-3.02588 1.59766,-1.88282 16.89648,16.98877 35.04199,33.97266 43.83008,56.84375 7.90625,20.57715 3.00097,42.64356 -14.08594,56.74903 -16.79199,13.86181 -39.76953,16.59179 -60.72363,15.62011 -24.79981,-1.1499 -49.24121,-6.85595 -72.69824,-14.77588 -49.44434,-16.69433 -95.47022,-44.55371 -135.07764,-78.33984 -29.52295,-25.1831 -55.76416,-54.58935 -72.64209,-89.77295 -8.31543,-17.33398 -16.70069,-39.40137 -10.81738,-58.73144 6.87548,-22.58985 36.65478,-29.66602 55.82421,-18.52539 1.21875,0.70898 0.32715,2.68261 -0.95312,2.00585 0,0 0,0 0,0 z"
           style="fill:#eb9e20;fill-opacity:1;fill-rule:nonzero;stroke:#eb9e20;stroke-opacity:1;stroke-width:29.1941449;stroke-miterlimit:4;stroke-dasharray:none"
           id="path2478" /></g><g
         id="g2480"><text
           id="text2482"
           transform="matrix(1,0,0,-0.8,254.31836,165.93945)"><tspan
             id="tspan2486"
             style="font-variant:normal;font-weight:normal;font-size:75px;font-family:CooperBlack;-inkscape-font-specification:CooperBlack;writing-mode:lr-tb;fill:none;stroke:#ffffff;stroke-width:4;stroke-linecap:butt;stroke-linejoin:miter;stroke-miterlimit:4;stroke-dasharray:none;stroke-opacity:1"
             x="0"
             y="0" /></text>
<text
           id="text2488"
           transform="matrix(1,0,0,-1,245.36523,126)"><tspan
             id="tspan2490"
             style="font-variant:normal;font-weight:normal;font-size:14px;font-family:CooperBlack;-inkscape-font-specification:CooperBlack;writing-mode:lr-tb;fill:#3653a3;fill-opacity:1;fill-rule:nonzero;stroke:none"
             x="0"
             y="0" /></text>
<text
           id="text2492"
           transform="matrix(1,0,0,-1,254.85107,144)"><tspan
             y="0"
             id="tspan2494"
             x="0"
             style="font-variant:normal;font-weight:normal;font-size:18px;font-family:ae_Khalid;-inkscape-font-specification:ae_Khalid;writing-mode:lr-tb;fill:#3653a3;fill-opacity:1;fill-rule:nonzero;stroke:none" /></text>
</g><flowRoot
         style="font-style:normal;font-weight:normal;font-size:40px;font-family:'Bitstream Vera Sans';fill:#000000;fill-opacity:1;stroke:none;stroke-width:1px;stroke-linecap:butt;stroke-linejoin:miter;stroke-opacity:1"
         id="flowRoot2498"
         xml:space="preserve"><flowRegion
           id="flowRegion2500"><rect
             transform="scale(1,-1)"
             y="505.51471"
             x="314.33823"
             height="79.044121"
             width="428.30884"
             id="rect2502" /></flowRegion><flowPara
           id="flowPara2504" /></flowRoot><g
         transform="matrix(1.0051835,0,0,0.99989332,-2.2392687,15.378294)"
         id="g4293"><path
           d="m 648.05635,126.32506 c 0,0 -432.1127,0 -432.1127,0 0,0 0,84.1532 0,84.1532 0,0 432.1127,0 432.1127,0 0,0 0,-84.1532 0,-84.1532 z"
           style="fill:#eb9e20;fill-opacity:1;fill-rule:nonzero;stroke:#ffffff;stroke-width:3.54122615;stroke-miterlimit:4;stroke-dasharray:none"
           id="path2438" /></g></g></g></svg>